<svg xmlns="http://www.w3.org/2000/svg" xmlns:xlink="http://www.w3.org/1999/xlink" viewBox="0 0 1818.85 614.7"><defs><style>.cls-1{fill:#662d91;}.cls-2{fill:#6d258e;}.cls-2,.cls-3,.cls-4,.cls-5{stroke:#662d91;stroke-miterlimit:10;}.cls-3{fill:#49186b;}.cls-4{fill:url(#linear-gradient);}.cls-5{fill:url(#linear-gradient-2);}.cls-6{font-size:134.3px;letter-spacing:-0.03em;}.cls-11,.cls-113,.cls-13,.cls-15,.cls-6,.cls-8{fill:#fff;}.cls-11,.cls-13,.cls-6,.cls-8{font-family:FranklinGothic-Demi, Franklin Gothic Demi;font-weight:300;}.cls-7{letter-spacing:0.01em;}.cls-8{font-size:151.56px;letter-spacing:0.01em;}.cls-9{letter-spacing:0.03em;}.cls-10{letter-spacing:0em;}.cls-11,.cls-13{font-size:186px;}.cls-11{letter-spacing:0.01em;}.cls-12{letter-spacing:0.01em;}.cls-13{letter-spacing:0.01em;}.cls-103,.cls-121,.cls-14,.cls-16{fill:#e068fd;}.cls-14{opacity:0.24;}.cls-103,.cls-113,.cls-114,.cls-115,.cls-121,.cls-14,.cls-24,.cls-27,.cls-32,.cls-33,.cls-34,.cls-35,.cls-36,.cls-37,.cls-38,.cls-39,.cls-40,.cls-41,.cls-42,.cls-43,.cls-44,.cls-45,.cls-46,.cls-47,.cls-48,.cls-49,.cls-50,.cls-51,.cls-52,.cls-53,.cls-54,.cls-55,.cls-56,.cls-57,.cls-58,.cls-59,.cls-60,.cls-61,.cls-62,.cls-63,.cls-64,.cls-65,.cls-66,.cls-67,.cls-68,.cls-69,.cls-70,.cls-71,.cls-86{isolation:isolate;}.cls-17{fill:url(#linear-gradient-3);}.cls-18{fill:url(#linear-gradient-4);}.cls-19{fill:url(#linear-gradient-5);}.cls-20{fill:url(#linear-gradient-6);}.cls-21{fill:url(#linear-gradient-7);}.cls-22{fill:url(#linear-gradient-8);}.cls-23{fill:url(#linear-gradient-9);}.cls-24,.cls-27,.cls-32,.cls-33,.cls-34,.cls-35,.cls-36,.cls-37,.cls-38,.cls-39,.cls-40,.cls-41,.cls-42,.cls-43,.cls-44,.cls-45,.cls-46,.cls-47,.cls-48,.cls-49,.cls-50,.cls-51,.cls-52,.cls-53,.cls-54,.cls-55,.cls-56,.cls-57,.cls-58,.cls-59,.cls-60,.cls-61,.cls-62,.cls-63,.cls-64,.cls-65,.cls-66,.cls-67,.cls-68,.cls-69,.cls-70,.cls-71,.cls-86{opacity:0.65;}.cls-24{fill:url(#linear-gradient-10);}.cls-25{fill:url(#linear-gradient-11);}.cls-26{fill:url(#linear-gradient-12);}.cls-27{fill:url(#linear-gradient-13);}.cls-28{fill:url(#linear-gradient-14);}.cls-29{fill:url(#linear-gradient-15);}.cls-30{fill:url(#linear-gradient-16);}.cls-31{fill:url(#linear-gradient-17);}.cls-32{fill:url(#linear-gradient-18);}.cls-33{fill:url(#linear-gradient-19);}.cls-34{fill:url(#linear-gradient-20);}.cls-35{fill:url(#linear-gradient-21);}.cls-36{fill:url(#linear-gradient-22);}.cls-37{fill:url(#linear-gradient-23);}.cls-38{fill:url(#linear-gradient-24);}.cls-39{fill:url(#linear-gradient-25);}.cls-40{fill:url(#linear-gradient-26);}.cls-41{fill:url(#linear-gradient-27);}.cls-42{fill:url(#linear-gradient-28);}.cls-43{fill:url(#linear-gradient-29);}.cls-44{fill:url(#linear-gradient-30);}.cls-45{fill:url(#linear-gradient-31);}.cls-46{fill:url(#linear-gradient-32);}.cls-47{fill:url(#linear-gradient-33);}.cls-48{fill:url(#linear-gradient-34);}.cls-49{fill:url(#linear-gradient-35);}.cls-50{fill:url(#linear-gradient-36);}.cls-51{fill:url(#linear-gradient-37);}.cls-52{fill:url(#linear-gradient-38);}.cls-53{fill:url(#linear-gradient-39);}.cls-54{fill:url(#linear-gradient-40);}.cls-55{fill:url(#linear-gradient-41);}.cls-56{fill:url(#linear-gradient-42);}.cls-57{fill:url(#linear-gradient-43);}.cls-58{fill:url(#linear-gradient-44);}.cls-59{fill:url(#linear-gradient-45);}.cls-60{fill:url(#linear-gradient-46);}.cls-61{fill:url(#linear-gradient-47);}.cls-62{fill:url(#linear-gradient-48);}.cls-63{fill:url(#linear-gradient-49);}.cls-64{fill:url(#linear-gradient-50);}.cls-65{fill:url(#linear-gradient-51);}.cls-66{fill:url(#linear-gradient-52);}.cls-67{fill:url(#linear-gradient-53);}.cls-68{fill:url(#linear-gradient-54);}.cls-69{fill:url(#linear-gradient-55);}.cls-70{fill:url(#linear-gradient-56);}.cls-71{fill:url(#linear-gradient-57);}.cls-72{fill:url(#linear-gradient-58);}.cls-73{fill:url(#linear-gradient-59);}.cls-74{fill:url(#linear-gradient-60);}.cls-75{fill:url(#linear-gradient-61);}.cls-76{fill:url(#linear-gradient-62);}.cls-77{fill:url(#linear-gradient-63);}.cls-78{fill:url(#linear-gradient-64);}.cls-79{fill:url(#linear-gradient-65);}.cls-80{fill:url(#linear-gradient-66);}.cls-81{fill:url(#linear-gradient-67);}.cls-82{fill:url(#linear-gradient-68);}.cls-83{fill:url(#linear-gradient-69);}.cls-84{fill:url(#linear-gradient-70);}.cls-85{fill:url(#linear-gradient-71);}.cls-86{fill:url(#linear-gradient-72);}.cls-87{fill:url(#linear-gradient-73);}.cls-88{fill:url(#linear-gradient-74);}.cls-89{fill:url(#linear-gradient-75);}.cls-90{fill:url(#linear-gradient-76);}.cls-91{fill:url(#linear-gradient-77);}.cls-92{fill:url(#linear-gradient-78);}.cls-93{fill:url(#linear-gradient-79);}.cls-94{fill:url(#linear-gradient-80);}.cls-95{fill:url(#linear-gradient-81);}.cls-96{fill:#28353d;}.cls-97{fill:#606161;}.cls-98{fill:url(#linear-gradient-82);}.cls-99{fill:#ffcd9c;}.cls-100{fill:#f4ad7d;}.cls-101{fill:url(#linear-gradient-83);}.cls-102{fill:url(#linear-gradient-84);}.cls-103,.cls-113{opacity:0.18;}.cls-104{fill:url(#linear-gradient-85);}.cls-105{fill:url(#linear-gradient-86);}.cls-106{fill:url(#linear-gradient-87);}.cls-107{fill:none;}.cls-108{fill:url(#linear-gradient-88);}.cls-109{fill:url(#linear-gradient-89);}.cls-110{fill:url(#linear-gradient-90);}.cls-111{fill:url(#linear-gradient-91);}.cls-112{fill:url(#linear-gradient-92);}.cls-114,.cls-115{opacity:0.26;}.cls-114{fill:url(#linear-gradient-93);}.cls-115{fill:url(#linear-gradient-94);}.cls-116{fill:#fdb386;}.cls-117{fill:url(#linear-gradient-95);}.cls-118{fill:url(#linear-gradient-96);}.cls-119{fill:url(#linear-gradient-97);}.cls-120{fill:url(#linear-gradient-98);}.cls-121{opacity:0.13;}.cls-122{fill:url(#linear-gradient-99);}.cls-123{fill:url(#linear-gradient-100);}.cls-124{fill:url(#linear-gradient-101);}.cls-125{fill:url(#linear-gradient-102);}.cls-126{fill:url(#linear-gradient-103);}.cls-127{fill:url(#linear-gradient-104);}.cls-128{fill:url(#linear-gradient-105);}.cls-129{fill:url(#linear-gradient-106);}.cls-130{fill:url(#linear-gradient-107);}.cls-131{fill:url(#linear-gradient-108);}.cls-132{fill:url(#linear-gradient-109);}.cls-133{opacity:0.38;}</style><linearGradient id="linear-gradient" x1="1476.61" y1="341.53" x2="1673.26" y2="9.04" gradientUnits="userSpaceOnUse"><stop offset="0" stop-color="#93278f"/><stop offset="1" stop-color="#5a006a"/></linearGradient><linearGradient id="linear-gradient-2" x1="1996.4" y1="120.33" x2="1996.4" y2="120.33" xlink:href="#linear-gradient"/><linearGradient id="linear-gradient-3" x1="1158.24" y1="272.13" x2="1192.52" y2="298.03" gradientTransform="matrix(0.91, -0.42, -0.42, -0.91, 230.94, 917.86)" gradientUnits="userSpaceOnUse"><stop offset="0" stop-color="#010101" stop-opacity="0"/><stop offset="0.95" stop-color="#010101"/></linearGradient><linearGradient id="linear-gradient-4" x1="1165.12" y1="278.36" x2="1211.98" y2="312.61" gradientTransform="matrix(0.91, -0.42, -0.42, -0.91, 230.93, 917.87)" xlink:href="#linear-gradient-3"/><linearGradient id="linear-gradient-5" x1="1172.34" y1="283.37" x2="1250.71" y2="360.19" gradientTransform="matrix(0.91, -0.42, -0.42, -0.91, 230.93, 917.86)" xlink:href="#linear-gradient-3"/><linearGradient id="linear-gradient-6" x1="1181.82" y1="292.12" x2="1299.5" y2="400.2" gradientTransform="matrix(0.91, -0.42, -0.42, -0.91, 230.94, 917.87)" gradientUnits="userSpaceOnUse"><stop offset="0" stop-color="#010101" stop-opacity="0"/><stop offset="0.36" stop-color="#010101" stop-opacity="0.36"/><stop offset="0.95" stop-color="#010101"/></linearGradient><linearGradient id="linear-gradient-7" x1="1189.96" y1="299.87" x2="1257.97" y2="355.54" gradientTransform="matrix(0.91, -0.42, -0.42, -0.91, 230.94, 917.86)" gradientUnits="userSpaceOnUse"><stop offset="0" stop-color="#fff" stop-opacity="0"/><stop offset="0.07" stop-color="#fff" stop-opacity="0.22"/><stop offset="0.16" stop-color="#fff" stop-opacity="0.45"/><stop offset="0.25" stop-color="#fff" stop-opacity="0.65"/><stop offset="0.33" stop-color="#fff" stop-opacity="0.8"/><stop offset="0.4" stop-color="#fff" stop-opacity="0.91"/><stop offset="0.46" stop-color="#fff" stop-opacity="0.98"/><stop offset="0.51" stop-color="#fff"/></linearGradient><linearGradient id="linear-gradient-8" x1="1192.74" y1="301.97" x2="1229.81" y2="333.99" gradientTransform="matrix(0.91, -0.42, -0.42, -0.91, 230.93, 917.86)" xlink:href="#linear-gradient-7"/><linearGradient id="linear-gradient-9" x1="1380.28" y1="783.33" x2="1384.83" y2="821.51" gradientTransform="matrix(1, 0, 0, -1, -102.64, 1079.45)" xlink:href="#linear-gradient-3"/><linearGradient id="linear-gradient-10" x1="1384.71" y1="897.9" x2="1382.87" y2="757.98" gradientTransform="matrix(1, 0, 0, -1, -2.57, 1055.49)" xlink:href="#linear-gradient-7"/><linearGradient id="linear-gradient-11" x1="1380.74" y1="788.03" x2="1382.74" y2="747.42" gradientTransform="matrix(1, 0, 0, -1, -102.64, 1079.45)" xlink:href="#linear-gradient-3"/><linearGradient id="linear-gradient-12" x1="1462.27" y1="845.25" x2="1552.55" y2="837.95" gradientTransform="matrix(1, 0, 0, -1, -102.64, 1079.45)" xlink:href="#linear-gradient-3"/><linearGradient id="linear-gradient-13" x1="1465.46" y1="924.4" x2="1473.96" y2="923.79" gradientTransform="matrix(1, 0, 0, -1, -102.64, 1079.45)" xlink:href="#linear-gradient-7"/><linearGradient id="linear-gradient-14" x1="1467.56" y1="929.24" x2="1470.5" y2="929.04" gradientTransform="matrix(1, 0, 0, -1, -102.64, 1079.45)" xlink:href="#linear-gradient-3"/><linearGradient id="linear-gradient-15" x1="1468.63" y1="780.48" x2="1469.15" y2="759.86" gradientTransform="matrix(1, 0, 0, -1, -102.64, 1079.45)" xlink:href="#linear-gradient-3"/><linearGradient id="linear-gradient-16" x1="1478.58" y1="747" x2="1458.96" y2="728.2" gradientTransform="matrix(1, 0, 0, -1, -2.57, 1055.49)" xlink:href="#linear-gradient-3"/><linearGradient id="linear-gradient-17" x1="1464.03" y1="855.25" x2="1617.08" y2="860" gradientTransform="matrix(1, 0, 0, -1, -102.64, 1079.45)" xlink:href="#linear-gradient-3"/><linearGradient id="linear-gradient-18" x1="1474.24" y1="948.13" x2="1532.67" y2="949.95" gradientTransform="matrix(1, 0, 0, -1, -102.64, 1079.45)" xlink:href="#linear-gradient-7"/><linearGradient id="linear-gradient-19" x1="1474.24" y1="943.38" x2="1532.67" y2="945.19" gradientTransform="matrix(1, 0, 0, -1, -102.64, 1079.45)" xlink:href="#linear-gradient-7"/><linearGradient id="linear-gradient-20" x1="1474.24" y1="938.63" x2="1532.67" y2="940.44" gradientTransform="matrix(1, 0, 0, -1, -102.64, 1079.45)" xlink:href="#linear-gradient-7"/><linearGradient id="linear-gradient-21" x1="1474.24" y1="933.87" x2="1532.67" y2="935.69" gradientTransform="matrix(1, 0, 0, -1, -102.64, 1079.45)" xlink:href="#linear-gradient-7"/><linearGradient id="linear-gradient-22" x1="1474.24" y1="929.11" x2="1532.67" y2="930.93" gradientTransform="matrix(1, 0, 0, -1, -102.64, 1079.45)" xlink:href="#linear-gradient-7"/><linearGradient id="linear-gradient-23" x1="1474.24" y1="924.36" x2="1532.67" y2="926.17" gradientTransform="matrix(1, 0, 0, -1, -102.64, 1079.45)" xlink:href="#linear-gradient-7"/><linearGradient id="linear-gradient-24" x1="1474.24" y1="919.6" x2="1532.67" y2="921.41" gradientTransform="matrix(1, 0, 0, -1, -102.64, 1079.45)" xlink:href="#linear-gradient-7"/><linearGradient id="linear-gradient-25" x1="1474.24" y1="914.85" x2="1532.67" y2="916.66" gradientTransform="matrix(1, 0, 0, -1, -102.64, 1079.45)" xlink:href="#linear-gradient-7"/><linearGradient id="linear-gradient-26" x1="1474.24" y1="910.09" x2="1532.67" y2="911.9" gradientTransform="matrix(1, 0, 0, -1, -102.64, 1079.45)" xlink:href="#linear-gradient-7"/><linearGradient id="linear-gradient-27" x1="1474.24" y1="905.33" x2="1532.67" y2="907.15" gradientTransform="matrix(1, 0, 0, -1, -102.64, 1079.45)" xlink:href="#linear-gradient-7"/><linearGradient id="linear-gradient-28" x1="1474.24" y1="900.58" x2="1532.67" y2="902.39" gradientTransform="matrix(1, 0, 0, -1, -102.64, 1079.45)" xlink:href="#linear-gradient-7"/><linearGradient id="linear-gradient-29" x1="1474.24" y1="895.82" x2="1532.67" y2="897.64" gradientTransform="matrix(1, 0, 0, -1, -102.64, 1079.45)" xlink:href="#linear-gradient-7"/><linearGradient id="linear-gradient-30" x1="1474.24" y1="891.07" x2="1532.67" y2="892.88" gradientTransform="matrix(1, 0, 0, -1, -102.64, 1079.45)" xlink:href="#linear-gradient-7"/><linearGradient id="linear-gradient-31" x1="1474.24" y1="886.31" x2="1532.67" y2="888.13" gradientTransform="matrix(1, 0, 0, -1, -102.64, 1079.45)" xlink:href="#linear-gradient-7"/><linearGradient id="linear-gradient-32" x1="1474.24" y1="881.55" x2="1532.67" y2="883.37" gradientTransform="matrix(1, 0, 0, -1, -102.64, 1079.45)" xlink:href="#linear-gradient-7"/><linearGradient id="linear-gradient-33" x1="1474.24" y1="876.8" x2="1532.67" y2="878.61" gradientTransform="matrix(1, 0, 0, -1, -102.64, 1079.45)" xlink:href="#linear-gradient-7"/><linearGradient id="linear-gradient-34" x1="1474.24" y1="872.05" x2="1532.67" y2="873.86" gradientTransform="matrix(1, 0, 0, -1, -102.64, 1079.45)" xlink:href="#linear-gradient-7"/><linearGradient id="linear-gradient-35" x1="1474.24" y1="867.29" x2="1532.67" y2="869.11" gradientTransform="matrix(1, 0, 0, -1, -102.64, 1079.45)" xlink:href="#linear-gradient-7"/><linearGradient id="linear-gradient-36" x1="1474.24" y1="862.54" x2="1532.67" y2="864.35" gradientTransform="matrix(1, 0, 0, -1, -102.64, 1079.45)" xlink:href="#linear-gradient-7"/><linearGradient id="linear-gradient-37" x1="1474.24" y1="857.78" x2="1532.67" y2="859.59" gradientTransform="matrix(1, 0, 0, -1, -102.64, 1079.45)" xlink:href="#linear-gradient-7"/><linearGradient id="linear-gradient-38" x1="1474.24" y1="853.02" x2="1532.67" y2="854.83" gradientTransform="matrix(1, 0, 0, -1, -102.64, 1079.45)" xlink:href="#linear-gradient-7"/><linearGradient id="linear-gradient-39" x1="1474.24" y1="848.27" x2="1532.67" y2="850.08" gradientTransform="matrix(1, 0, 0, -1, -102.64, 1079.45)" xlink:href="#linear-gradient-7"/><linearGradient id="linear-gradient-40" x1="1474.24" y1="843.51" x2="1532.67" y2="845.32" gradientTransform="matrix(1, 0, 0, -1, -102.64, 1079.45)" xlink:href="#linear-gradient-7"/><linearGradient id="linear-gradient-41" x1="1474.24" y1="838.75" x2="1532.67" y2="840.57" gradientTransform="matrix(1, 0, 0, -1, -102.64, 1079.45)" xlink:href="#linear-gradient-7"/><linearGradient id="linear-gradient-42" x1="1474.24" y1="834" x2="1532.67" y2="835.82" gradientTransform="matrix(1, 0, 0, -1, -102.64, 1079.45)" xlink:href="#linear-gradient-7"/><linearGradient id="linear-gradient-43" x1="1474.24" y1="829.24" x2="1532.67" y2="831.06" gradientTransform="matrix(1, 0, 0, -1, -102.64, 1079.45)" xlink:href="#linear-gradient-7"/><linearGradient id="linear-gradient-44" x1="1474.24" y1="824.49" x2="1532.67" y2="826.3" gradientTransform="matrix(1, 0, 0, -1, -102.64, 1079.45)" xlink:href="#linear-gradient-7"/><linearGradient id="linear-gradient-45" x1="1474.24" y1="819.73" x2="1532.67" y2="821.55" gradientTransform="matrix(1, 0, 0, -1, -102.64, 1079.45)" xlink:href="#linear-gradient-7"/><linearGradient id="linear-gradient-46" x1="1474.24" y1="814.97" x2="1532.67" y2="816.79" gradientTransform="matrix(1, 0, 0, -1, -102.64, 1079.45)" xlink:href="#linear-gradient-7"/><linearGradient id="linear-gradient-47" x1="1474.24" y1="810.22" x2="1532.67" y2="812.03" gradientTransform="matrix(1, 0, 0, -1, -102.64, 1079.45)" xlink:href="#linear-gradient-7"/><linearGradient id="linear-gradient-48" x1="1474.24" y1="805.47" x2="1532.67" y2="807.29" gradientTransform="matrix(1, 0, 0, -1, -102.64, 1079.45)" xlink:href="#linear-gradient-7"/><linearGradient id="linear-gradient-49" x1="1474.24" y1="800.71" x2="1532.67" y2="802.53" gradientTransform="matrix(1, 0, 0, -1, -102.64, 1079.45)" xlink:href="#linear-gradient-7"/><linearGradient id="linear-gradient-50" x1="1474.24" y1="795.96" x2="1532.67" y2="797.77" gradientTransform="matrix(1, 0, 0, -1, -102.64, 1079.45)" xlink:href="#linear-gradient-7"/><linearGradient id="linear-gradient-51" x1="1474.24" y1="791.2" x2="1532.67" y2="793.01" gradientTransform="matrix(1, 0, 0, -1, -102.64, 1079.45)" xlink:href="#linear-gradient-7"/><linearGradient id="linear-gradient-52" x1="1474.24" y1="786.45" x2="1532.67" y2="788.26" gradientTransform="matrix(1, 0, 0, -1, -102.64, 1079.45)" xlink:href="#linear-gradient-7"/><linearGradient id="linear-gradient-53" x1="1474.24" y1="781.69" x2="1532.67" y2="783.5" gradientTransform="matrix(1, 0, 0, -1, -102.64, 1079.45)" xlink:href="#linear-gradient-7"/><linearGradient id="linear-gradient-54" x1="1474.24" y1="776.93" x2="1532.67" y2="778.74" gradientTransform="matrix(1, 0, 0, -1, -102.64, 1079.45)" xlink:href="#linear-gradient-7"/><linearGradient id="linear-gradient-55" x1="1474.24" y1="772.18" x2="1532.67" y2="773.99" gradientTransform="matrix(1, 0, 0, -1, -102.64, 1079.45)" xlink:href="#linear-gradient-7"/><linearGradient id="linear-gradient-56" x1="1474.24" y1="767.42" x2="1532.67" y2="769.24" gradientTransform="matrix(1, 0, 0, -1, -102.64, 1079.45)" xlink:href="#linear-gradient-7"/><linearGradient id="linear-gradient-57" x1="1474.24" y1="762.66" x2="1532.67" y2="764.48" gradientTransform="matrix(1, 0, 0, -1, -102.64, 1079.45)" xlink:href="#linear-gradient-7"/><linearGradient id="linear-gradient-58" x1="1241.27" y1="870.48" x2="2226.34" y2="901.08" gradientTransform="matrix(1, 0, 0, -1, -2.57, 1055.49)" xlink:href="#linear-gradient-7"/><linearGradient id="linear-gradient-59" x1="1322.01" y1="907.69" x2="1324.08" y2="777.34" gradientTransform="matrix(1, 0, 0, -1, -102.64, 1079.45)" xlink:href="#linear-gradient-7"/><linearGradient id="linear-gradient-60" x1="1379.99" y1="895.12" x2="1378.83" y2="806.68" gradientTransform="matrix(1, 0, 0, -1, -102.64, 1079.45)" xlink:href="#linear-gradient-7"/><linearGradient id="linear-gradient-61" x1="1363.5" y1="838.12" x2="1367.86" y2="1015.43" gradientTransform="matrix(1, 0, 0, -1, -102.64, 1079.45)" xlink:href="#linear-gradient-3"/><linearGradient id="linear-gradient-62" x1="1363.18" y1="838.16" x2="1367.54" y2="1015.47" gradientTransform="matrix(1, 0, 0, -1, -102.64, 1079.45)" xlink:href="#linear-gradient-3"/><linearGradient id="linear-gradient-63" x1="1337.41" y1="838.85" x2="1341.78" y2="1016.16" gradientTransform="matrix(1, 0, 0, -1, -102.64, 1079.45)" xlink:href="#linear-gradient-3"/><linearGradient id="linear-gradient-64" x1="1337.09" y1="838.89" x2="1341.46" y2="1016.2" gradientTransform="matrix(1, 0, 0, -1, -102.64, 1079.45)" xlink:href="#linear-gradient-3"/><linearGradient id="linear-gradient-65" x1="1362.82" y1="838.21" x2="1367.2" y2="1015.52" gradientTransform="matrix(1, 0, 0, -1, -102.64, 1079.45)" xlink:href="#linear-gradient-3"/><linearGradient id="linear-gradient-66" x1="1337.4" y1="838.91" x2="1341.76" y2="1016.22" gradientTransform="matrix(1, 0, 0, -1, -102.64, 1079.45)" xlink:href="#linear-gradient-3"/><linearGradient id="linear-gradient-67" x1="1350.32" y1="838.56" x2="1354.69" y2="1015.86" gradientTransform="matrix(1, 0, 0, -1, -102.64, 1079.45)" xlink:href="#linear-gradient-3"/><linearGradient id="linear-gradient-68" x1="1351" y1="838.47" x2="1355.37" y2="1015.78" gradientTransform="matrix(1, 0, 0, -1, -102.64, 1079.45)" xlink:href="#linear-gradient-3"/><linearGradient id="linear-gradient-69" x1="1349.93" y1="840.89" x2="1422.02" y2="780.96" gradientTransform="matrix(1, 0, 0, -1, -2.57, 1055.49)" xlink:href="#linear-gradient-7"/><linearGradient id="linear-gradient-70" x1="1432.94" y1="899.8" x2="1432.38" y2="857.79" gradientTransform="matrix(1, 0, 0, -1, -102.64, 1079.45)" xlink:href="#linear-gradient-7"/><linearGradient id="linear-gradient-71" x1="1432.94" y1="865.91" x2="1432.38" y2="823.9" gradientTransform="matrix(1, 0, 0, -1, -102.64, 1079.45)" xlink:href="#linear-gradient-7"/><linearGradient id="linear-gradient-72" x1="1322.84" y1="888.89" x2="1322.77" y2="883.47" gradientTransform="matrix(1, 0, 0, -1, -102.64, 1079.45)" xlink:href="#linear-gradient-7"/><linearGradient id="linear-gradient-73" x1="1270.1" y1="873.13" x2="1303.3" y2="898.22" gradientTransform="matrix(1, 0, 0, -1, -103.47, 1055.36)" xlink:href="#linear-gradient-3"/><linearGradient id="linear-gradient-74" x1="1279.98" y1="880.95" x2="1325.21" y2="914.02" gradientTransform="matrix(1, 0, 0, -1, -105.23, 1052.93)" xlink:href="#linear-gradient-3"/><linearGradient id="linear-gradient-75" x1="1286.67" y1="885.71" x2="1363.64" y2="961.16" gradientTransform="matrix(1, 0, 0, -1, -105.22, 1052.93)" xlink:href="#linear-gradient-3"/><linearGradient id="linear-gradient-76" x1="1295.7" y1="894.23" x2="1410.88" y2="1000.04" gradientTransform="matrix(1, 0, 0, -1, -105.22, 1052.94)" xlink:href="#linear-gradient-6"/><linearGradient id="linear-gradient-77" x1="1302.3" y1="929.66" x2="1359.29" y2="976.32" gradientTransform="matrix(1, 0, 0, -1, -102.64, 1079.45)" xlink:href="#linear-gradient-7"/><linearGradient id="linear-gradient-78" x1="1305.64" y1="903.68" x2="1341.81" y2="934.92" gradientTransform="matrix(1, 0, 0, -1, -105.23, 1052.93)" xlink:href="#linear-gradient-7"/><linearGradient id="linear-gradient-79" x1="1291.55" y1="865.5" x2="1302.63" y2="865.19" gradientTransform="matrix(1, 0, 0, -1, -2.57, 1055.49)" xlink:href="#linear-gradient-7"/><linearGradient id="linear-gradient-80" x1="1277.12" y1="882.56" x2="1305.34" y2="879.34" gradientTransform="matrix(1, 0, 0, -1, 0, 1082)" xlink:href="#linear-gradient-3"/><linearGradient id="linear-gradient-81" x1="1278.31" y1="843.45" x2="1306.78" y2="840.2" gradientTransform="matrix(1, 0, 0, -1, -2.57, 1055.49)" xlink:href="#linear-gradient-3"/><linearGradient id="linear-gradient-82" x1="1372.95" y1="747.12" x2="1359.88" y2="807.88" gradientTransform="matrix(1, 0, 0, -1, -2.57, 1055.49)" xlink:href="#linear-gradient-3"/><linearGradient id="linear-gradient-83" x1="1394.77" y1="758.44" x2="1341.64" y2="714.34" gradientTransform="matrix(1, 0, 0, -1, -2.57, 1055.49)" xlink:href="#linear-gradient-3"/><linearGradient id="linear-gradient-84" x1="1764.04" y1="677.39" x2="1764.24" y2="655.85" gradientTransform="matrix(1, -0.09, -0.09, -1, -27.7, 1017.1)" gradientUnits="userSpaceOnUse"><stop offset="0" stop-opacity="0"/><stop offset="0.99"/></linearGradient><linearGradient id="linear-gradient-85" x1="1739.72" y1="902.39" x2="1696.19" y2="857.29" gradientTransform="matrix(1, 0, 0, -1, -7.87, 1078.7)" xlink:href="#linear-gradient-84"/><linearGradient id="linear-gradient-86" x1="1765.95" y1="918.34" x2="1782.92" y2="808.41" gradientTransform="matrix(1, 0.01, 0.01, -1, -2.58, 1086.03)" xlink:href="#linear-gradient-84"/><linearGradient id="linear-gradient-87" x1="1792.56" y1="883.33" x2="1792.94" y2="851.09" gradientTransform="matrix(1, 0.01, 0.01, -1, -4.73, 1086.08)" xlink:href="#linear-gradient-84"/><linearGradient id="linear-gradient-88" x1="1796.44" y1="915.24" x2="1791.1" y2="930.86" gradientTransform="matrix(1, 0, 0, -1, -7.87, 1078.7)" xlink:href="#linear-gradient-84"/><linearGradient id="linear-gradient-89" x1="1833.1" y1="945.56" x2="1753.92" y2="942.65" gradientTransform="matrix(1, 0, 0, -1, 0, 1082)" xlink:href="#linear-gradient-84"/><linearGradient id="linear-gradient-90" x1="1782.33" y1="964.53" x2="1789.75" y2="902.59" gradientTransform="matrix(1, 0, 0, -1, 0, 1082)" gradientUnits="userSpaceOnUse"><stop offset="0.02" stop-color="#fff" stop-opacity="0"/><stop offset="0.32" stop-color="#fff" stop-opacity="0.39"/><stop offset="0.68" stop-color="#fff" stop-opacity="0.68"/><stop offset="1" stop-color="#fff"/></linearGradient><linearGradient id="linear-gradient-91" x1="1784.8" y1="920.7" x2="1804.38" y2="913.37" gradientTransform="matrix(1, 0, 0, -1, -102.64, 1079.45)" xlink:href="#linear-gradient-84"/><linearGradient id="linear-gradient-92" x1="1807.28" y1="916.38" x2="1797.88" y2="922.19" gradientTransform="matrix(1, 0, 0, -1, -7.87, 1078.7)" xlink:href="#linear-gradient-84"/><linearGradient id="linear-gradient-93" x1="1698.02" y1="707.18" x2="1699.04" y2="615.83" gradientTransform="matrix(1, 0, 0, -1, -9.26, 1100.81)" xlink:href="#linear-gradient-3"/><linearGradient id="linear-gradient-94" x1="1769.91" y1="715.4" x2="1771.21" y2="598.48" gradientTransform="matrix(1, 0, 0, -1, -9.46, 1096.72)" xlink:href="#linear-gradient-3"/><linearGradient id="linear-gradient-95" x1="1689.46" y1="681.65" x2="1679.9" y2="699.51" gradientTransform="matrix(1, -0.06, -0.06, -1, 28.83, 1178.96)" xlink:href="#linear-gradient-3"/><linearGradient id="linear-gradient-96" x1="1545.66" y1="810.71" x2="1553.32" y2="768.81" gradientTransform="matrix(1.19, 0.05, 0.04, -0.99, -108.79, 1113.09)" xlink:href="#linear-gradient-3"/><linearGradient id="linear-gradient-97" x1="1710.44" y1="667.79" x2="1698.98" y2="707.31" gradientTransform="matrix(1, -0.06, -0.06, -1, 28.83, 1178.96)" xlink:href="#linear-gradient-3"/><linearGradient id="linear-gradient-98" x1="1708.61" y1="684.97" x2="1667.93" y2="704.94" gradientTransform="matrix(1, -0.06, -0.06, -1, 28.83, 1178.96)" xlink:href="#linear-gradient-3"/><linearGradient id="linear-gradient-99" x1="1698.47" y1="703.99" x2="1694.26" y2="697.54" gradientTransform="matrix(1, -0.06, -0.06, -1, -69.69, 1194.34)" xlink:href="#linear-gradient-3"/><linearGradient id="linear-gradient-100" x1="1767.79" y1="693.32" x2="1763.76" y2="672.03" gradientTransform="matrix(1, -0.06, -0.06, -1, -69.69, 1194.34)" xlink:href="#linear-gradient-3"/><linearGradient id="linear-gradient-101" x1="1807.28" y1="715.63" x2="1808.43" y2="625.39" gradientTransform="matrix(1, -0.06, -0.06, -1, 28.83, 1178.96)" xlink:href="#linear-gradient-3"/><linearGradient id="linear-gradient-102" x1="1658.45" y1="686.84" x2="1663.76" y2="652.98" gradientTransform="matrix(1, -0.06, -0.06, -1, 28.83, 1178.96)" xlink:href="#linear-gradient-3"/><linearGradient id="linear-gradient-103" x1="1743.08" y1="724.12" x2="1771.87" y2="688" gradientTransform="matrix(1, -0.06, -0.06, -1, 28.83, 1178.96)" xlink:href="#linear-gradient-3"/><linearGradient id="linear-gradient-104" x1="1753.47" y1="713.63" x2="1774.92" y2="677.22" gradientTransform="matrix(1, -0.06, -0.06, -1, 28.83, 1178.96)" xlink:href="#linear-gradient-3"/><linearGradient id="linear-gradient-105" x1="1765.7" y1="694.76" x2="1773.02" y2="654.71" gradientTransform="matrix(1, -0.06, -0.06, -1, 28.83, 1178.96)" xlink:href="#linear-gradient-3"/><linearGradient id="linear-gradient-106" x1="1668.81" y1="700.58" x2="1662.88" y2="669.31" gradientTransform="matrix(1, -0.06, -0.06, -1, 28.83, 1178.96)" xlink:href="#linear-gradient-3"/><linearGradient id="linear-gradient-107" x1="1802.37" y1="704.27" x2="1815.9" y2="698.8" gradientTransform="matrix(1, -0.06, -0.06, -1, 28.83, 1178.96)" xlink:href="#linear-gradient-3"/><linearGradient id="linear-gradient-108" x1="1806.33" y1="735.21" x2="1806.33" y2="709.89" gradientTransform="matrix(1, 0.02, 0.02, -1, -25.91, 1057.91)" xlink:href="#linear-gradient-3"/><linearGradient id="linear-gradient-109" x1="1802.64" y1="719.38" x2="1809.96" y2="719.38" gradientTransform="matrix(1, 0.02, 0.02, -1, -25.91, 1057.91)" gradientUnits="userSpaceOnUse"><stop offset="0" stop-color="#fff" stop-opacity="0"/><stop offset="0.13" stop-color="#fff" stop-opacity="0.23"/><stop offset="0.23" stop-color="#fff" stop-opacity="0.41"/><stop offset="0.35" stop-color="#fff" stop-opacity="0.59"/><stop offset="0.48" stop-color="#fff" stop-opacity="0.74"/><stop offset="0.6" stop-color="#fff" stop-opacity="0.85"/><stop offset="0.72" stop-color="#fff" stop-opacity="0.93"/><stop offset="0.84" stop-color="#fff" stop-opacity="0.98"/><stop offset="0.95" stop-color="#fff"/></linearGradient></defs><title>background3</title><g id="Layer_2" data-name="Layer 2"><path class="cls-1" d="M860,3.63" transform="translate(-102.64 -2.55)"/><path class="cls-1" d="M817.85-2.15" transform="translate(-102.64 -2.55)"/><path class="cls-1" d="M1921.49,449.68a94.85,94.85,0,0,0-32.42,6.65c-10.88-24-39.25-42.1-74-46.26,11.45-14.65,18-31.46,18-49.35,0-56.7-65.41-102.66-146.09-102.66q-3.84,0-7.64.14c11.47-16.55,17.94-35.28,17.94-55.13,0-67-73.79-121.4-164.82-121.4-58.08,0-109.15,22.13-138.5,55.57a92.77,92.77,0,0,0,5.52-31.36c0-41.41-28.07-78.48-72.29-103.33h-483a71.74,71.74,0,0,0-6.58,29.68c.09,54.47,67.31,102.23,142.69,97.25q6.46-.43,12.72-1.35c16,64.24,100.29,113.23,201.85,113.23,76.25,0,142.74-27.61,178-68.56a91.72,91.72,0,0,0-5.17,30.27c0,67,73.79,121.39,164.82,121.39,6.16,0,12.23-.26,18.22-.74a76.24,76.24,0,0,0-9.79,37c0,56.7,65.41,102.67,146.09,102.67a208.12,208.12,0,0,0,21.21-1.08,51.61,51.61,0,0,0-2.48,15.78c0,38.07,42.14,68.93,94.11,68.93,23.21,0,44.45-6.16,60.86-16.36,12.26,15.6,34.81,26.31,60.89,27.14Z" transform="translate(-102.64 -2.55)"/></g><g id="Layer_5" data-name="Layer 5"><path class="cls-2" d="M1920.55,88.54c-85.31-4.75-640.84-35-857.81-18.07-21.77,1.7-67.64,6-90.84,31.8-41.09,45.64,1.47,144.49,80.19,177.75,48.43,20.46,75.57,1.71,130.66,26.74,51.08,23.21,48.18,48.48,83.51,73,89,61.71,217.33-22.49,332.06,27.46,95.42,41.55,59.27,122.73,182.73,179.2,25.25,11.55,83.22,38.06,131.64,28.18,2.63-.54,5.25-1.2,7.86-2Z" transform="translate(-102.64 -2.55)"/></g><g id="Layer_7" data-name="Layer 7"><path class="cls-3" d="M2235.5,395.5" transform="translate(-102.64 -2.55)"/><path class="cls-4" d="M1047.76,110.94c-6,7.52-24.38,32.51-19.67,66.47,1.6,11.54,5.83,42,34.76,59.49,40.79,24.65,87.28-1.14,148.11,26.72,51,23.34,43.86,49.36,82.49,75.09,92,61.31,216.74-30.22,330,18.77,98.4,42.58,72,141.07,187.48,180.52,42.25,14.43,83.27,14,108.73,12.12V71.56c-99.57,5.2-187.39,5.85-263.29,4-95-2.3-142.57-3.57-191.83-10.89-67.56-10-107.43-23-190.11-26.74-24.36-1.11-48.37-1.58-75.32,1.34,0,0-18.15,2-33.31,5.17C1110.26,56,1062.47,97.49,1047.76,110.94Z" transform="translate(-102.64 -2.55)"/><path class="cls-5" d="M1996.4,120.33" transform="translate(-102.64 -2.55)"/></g><g id="titlu_" data-name="titlu\"><text class="cls-6" transform="translate(1.87 236.34) scale(0.52 1)">Y<tspan class="cls-7" x="65.36" y="0" xml:space="preserve">our business  </tspan></text><text class="cls-8" transform="translate(288.34 329.09) scale(0.42 1)">dese<tspan class="cls-9" x="323.43" y="0">r</tspan><tspan class="cls-10" x="381.2" y="0">v</tspan><tspan x="449.7" y="0">es</tspan></text><text class="cls-11" transform="translate(56.86 453.51) scale(0.37 1)">t<tspan class="cls-12" x="67.08" y="0">o be online</tspan></text><text class="cls-13" transform="translate(423.42 456.9) scale(0.37 1)">!</text></g><g id="Layer_13" data-name="Layer 13"><path class="cls-14" d="M1287.08,89.38c-26.28,24.89-30.35,72-48.14,106.69-6.2,12.08-14.2,22.9-18.38,36.3-9.58,30.68,3.61,65.49,21.27,89.86,8.42,11.62,18.26,22.27,30.16,27.17,9.15,3.77,19,3.93,28.6,4l168.78,2c18.84.21,39.78-.56,53.33-17,9.33-11.33,13.13-27.86,16.35-43.65,4-19.4,7.54-40.46,1.38-58.94-7-21.13-24.8-33.11-35.85-51.35-17.92-29.55-17.51-74.25-40.33-97.84-10.65-11-24.71-15.33-38.41-17.49-25.83-4.07-50.29,3.62-75.66,2.55C1328.5,70.74,1305.06,72.34,1287.08,89.38Z" transform="translate(-102.64 -2.55)"/><path class="cls-14" d="M1304.05,315.44c-12.86,1.44-26.1,3-37.41,10.1a9.82,9.82,0,0,0-3.89,3.78c-1.67,3.43.23,8,3.18,10s6.59,2.3,10.07,2.47c61.86,3,123.81,1.83,185.73.65,18-.34,36.24-.73,53.47-6.57,3.1-1,6.5-2.62,7.67-6,1.53-4.47-1.95-9.43-6-10.83s-8.4-.35-12.6.26c-14.58,2.11-29.29-1.12-43.8-3.7-28.42-5-57.91-9.16-86.69-9.93-9.82-.25-18.2,3.55-27.8,5.06C1332.1,312.9,1318,313.87,1304.05,315.44Z" transform="translate(-102.64 -2.55)"/><polygon class="cls-15" points="1151.28 177.78 1183.32 104.06 1202.41 114.62 1170.36 188.34 1151.28 177.78"/><polygon class="cls-16" points="1158.7 175.51 1162.61 166.5 1175.46 173.59 1171.56 182.6 1158.7 175.51"/><polygon class="cls-17" points="1158.7 175.51 1162.61 166.5 1175.46 173.59 1171.56 182.6 1158.7 175.51"/><polygon class="cls-16" points="1162.61 166.57 1166.51 157.56 1179.37 164.65 1175.46 173.66 1162.61 166.57"/><polygon class="cls-18" points="1162.61 166.57 1166.51 157.56 1179.37 164.65 1175.46 173.66 1162.61 166.57"/><polygon class="cls-16" points="1166.51 157.63 1170.41 148.62 1183.27 155.7 1179.36 164.71 1166.51 157.63"/><polygon class="cls-19" points="1166.51 157.63 1170.41 148.62 1183.27 155.7 1179.36 164.71 1166.51 157.63"/><polygon class="cls-16" points="1170.42 148.69 1174.32 139.68 1187.18 146.77 1183.27 155.78 1170.42 148.69"/><polygon class="cls-20" points="1170.42 148.69 1174.32 139.68 1187.18 146.77 1183.27 155.78 1170.42 148.69"/><polygon class="cls-16" points="1174.32 139.75 1178.23 130.73 1191.08 137.82 1187.18 146.83 1174.32 139.75"/><polygon class="cls-16" points="1178.23 130.81 1182.13 121.8 1194.99 128.89 1191.08 137.9 1178.23 130.81"/><polygon class="cls-16" points="1182.13 121.87 1186.03 112.86 1198.89 119.95 1194.98 128.96 1182.13 121.87"/><polygon class="cls-21" points="1177.79 131.93 1181.69 122.92 1194.55 130.01 1190.64 139.02 1177.79 131.93"/><polygon class="cls-22" points="1181.69 122.99 1185.6 113.98 1198.45 121.06 1194.55 130.07 1181.69 122.99"/><rect class="cls-16" x="1264.91" y="277.18" width="26.98" height="25.13"/><rect class="cls-23" x="1264.91" y="277.18" width="26.98" height="25.13"/><path class="cls-16" d="M1315.38,172.6h132.3c3,0,5.43,2.74,5.43,6.13v98.79c0,3.38-2.43,6.13-5.43,6.13h-132.3c-3,0-5.44-2.75-5.44-6.13V178.73C1309.94,175.34,1312.38,172.6,1315.38,172.6Z" transform="translate(-102.64 -2.55)"/><path class="cls-24" d="M1448.78,182.37V274.1c0,3.17-2.25,5.74-5.06,5.75h-125c-2.81,0-5.08-2.58-5.08-5.75h0V182.37c0-3.17,2.27-5.74,5.08-5.75h125c2.8,0,5.08,2.57,5.07,5.74Z" transform="translate(-102.64 -2.55)"/><rect class="cls-16" x="1252.24" y="299.78" width="57.03" height="6.69"/><rect class="cls-25" x="1264.94" y="296.32" width="26.98" height="3.55"/><path class="cls-16" d="M1410.49,125.22v-6.39h-3.76a19.52,19.52,0,0,0-2.38-6.26l2.9-3.27-4-4.54-2.89,3.22a15.47,15.47,0,0,0-6.38-3.15v-4.49h-5.67v4.4a14.34,14.34,0,0,0-6.38,2.72l-2.32-2.72-4.09,4.44,2.27,2.65a18.94,18.94,0,0,0-2.9,7h-4.06v6.39h3.92a19.36,19.36,0,0,0,2.85,8.21l-2.44,2.7,4,4.58,2.46-2.75a14.82,14.82,0,0,0,6.73,3v4H1394v-4.15a15.32,15.32,0,0,0,6-2.85l2.94,3.44,4.09-4.45-3-3.48a19.2,19.2,0,0,0,2.9-8.23Zm-19.67,8.43c-5.27,0-9.54-4.84-9.54-10.79s4.29-10.77,9.57-10.76,9.54,4.84,9.54,10.79-4.26,10.76-9.53,10.76Z" transform="translate(-102.64 -2.55)"/><path class="cls-16" d="M1431.25,133.78l.25-3.79-2.23-.18a11.44,11.44,0,0,0-1.16-3.83l1.86-1.78-2.18-2.89-1.84,1.76a9.39,9.39,0,0,0-3.63-2.18l.18-2.66-3.35-.28-.17,2.62a8.31,8.31,0,0,0-3.87,1.31l-1.26-1.73-2.6,2.42,1.24,1.68a11,11,0,0,0-2,4l-2.4-.21-.25,3.78,2.26.2a11.72,11.72,0,0,0,1.36,5l-1.55,1.48,2.19,2.88,1.57-1.5a9.09,9.09,0,0,0,3.86,2.1l-.16,2.39,3.34.28.17-2.45a9.08,9.08,0,0,0,3.67-1.38l1.6,2.18,2.6-2.42-1.63-2.22a11.23,11.23,0,0,0,2-4.72Zm-12,4c-3.12-.27-5.45-3.34-5.21-6.85s3-6.15,6.08-5.88,5.44,3.33,5.21,6.85-2.94,6.14-6,5.89Z" transform="translate(-102.64 -2.55)"/><path class="cls-16" d="M1474.27,165.14V316.27c0,3.13-2.26,5.66-5,5.68h-.58c-2.77,0-5-2.56-5-5.68V165.14l5-15Z" transform="translate(-102.64 -2.55)"/><rect class="cls-26" x="1365.89" y="162.58" width="5.72" height="144.72"/><polygon class="cls-27" points="1371.67 162.82 1361 162.6 1364.29 152.84 1366.05 147.61 1367.99 152.84 1371.67 162.82"/><polygon class="cls-28" points="1367.99 152.84 1364.29 152.84 1366.05 147.61 1367.99 152.84"/><rect class="cls-29" x="1360.76" y="304.88" width="10.89" height="5.19"/><path class="cls-30" d="M1474.27,311.6v4.69c0,3.13-2.26,5.66-5,5.67h-.58c-2.77,0-5-2.55-5-5.67V311.6Z" transform="translate(-102.64 -2.55)"/><rect class="cls-16" x="1376.01" y="127.54" width="28.62" height="192.3"/><rect class="cls-31" x="1376.01" y="127.19" width="15.03" height="192.64"/><rect class="cls-32" x="1376.07" y="130.28" width="7.97" height="1.56"/><rect class="cls-33" x="1376.07" y="135.04" width="7.97" height="1.56"/><rect class="cls-34" x="1376.07" y="139.78" width="7.97" height="1.56"/><rect class="cls-35" x="1376.07" y="144.54" width="7.97" height="1.56"/><rect class="cls-36" x="1376.07" y="149.3" width="7.97" height="1.56"/><rect class="cls-37" x="1376.07" y="154.05" width="7.97" height="1.56"/><rect class="cls-38" x="1376.07" y="158.81" width="7.97" height="1.56"/><rect class="cls-39" x="1376.07" y="163.57" width="7.97" height="1.56"/><rect class="cls-40" x="1376.07" y="168.32" width="7.97" height="1.56"/><rect class="cls-41" x="1376.07" y="173.08" width="7.97" height="1.56"/><rect class="cls-42" x="1376.07" y="177.83" width="7.97" height="1.56"/><rect class="cls-43" x="1376.07" y="182.59" width="7.97" height="1.56"/><rect class="cls-44" x="1376.07" y="187.35" width="7.97" height="1.56"/><rect class="cls-45" x="1376.07" y="192.1" width="7.97" height="1.56"/><rect class="cls-46" x="1376.07" y="196.86" width="7.97" height="1.56"/><rect class="cls-47" x="1376.07" y="201.61" width="7.97" height="1.56"/><rect class="cls-48" x="1376.07" y="206.36" width="7.97" height="1.56"/><rect class="cls-49" x="1376.07" y="211.12" width="7.97" height="1.56"/><rect class="cls-50" x="1376.07" y="215.88" width="7.97" height="1.56"/><rect class="cls-51" x="1376.07" y="220.63" width="7.97" height="1.56"/><rect class="cls-52" x="1376.07" y="225.39" width="7.97" height="1.56"/><rect class="cls-53" x="1376.07" y="230.14" width="7.97" height="1.56"/><rect class="cls-54" x="1376.07" y="234.9" width="7.97" height="1.56"/><rect class="cls-55" x="1376.07" y="239.66" width="7.97" height="1.56"/><rect class="cls-56" x="1376.07" y="244.41" width="7.97" height="1.56"/><rect class="cls-57" x="1376.07" y="249.17" width="7.97" height="1.56"/><rect class="cls-58" x="1376.07" y="253.92" width="7.97" height="1.56"/><rect class="cls-59" x="1376.07" y="258.68" width="7.97" height="1.56"/><rect class="cls-60" x="1376.07" y="263.44" width="7.97" height="1.56"/><rect class="cls-61" x="1376.07" y="268.19" width="7.97" height="1.56"/><rect class="cls-62" x="1376.07" y="272.94" width="7.97" height="1.56"/><rect class="cls-63" x="1376.07" y="277.7" width="7.97" height="1.56"/><rect class="cls-64" x="1376.07" y="282.45" width="7.97" height="1.56"/><rect class="cls-65" x="1376.07" y="287.21" width="7.97" height="1.56"/><rect class="cls-66" x="1376.07" y="291.97" width="7.97" height="1.56"/><rect class="cls-67" x="1376.07" y="296.72" width="7.97" height="1.56"/><rect class="cls-68" x="1376.07" y="301.48" width="7.97" height="1.56"/><rect class="cls-69" x="1376.07" y="306.23" width="7.97" height="1.56"/><rect class="cls-70" x="1376.07" y="310.99" width="7.97" height="1.56"/><rect class="cls-71" x="1376.07" y="315.75" width="7.97" height="1.56"/><path class="cls-72" d="M1448.78,182.37v2H1313.65v-2c0-3.17,2.26-5.74,5.07-5.75h125c2.8,0,5.08,2.57,5.07,5.74Z" transform="translate(-102.64 -2.55)"/><rect class="cls-73" x="1213.81" y="191.53" width="12.88" height="70.9"/><rect class="cls-74" x="1246.11" y="196.25" width="61.32" height="65.49"/><rect class="cls-75" x="1260" y="227.15" width="2.34" height="2.77"/><rect class="cls-76" x="1260" y="214.12" width="2.34" height="2.77"/><rect class="cls-77" x="1233.9" y="227.15" width="2.34" height="2.77"/><rect class="cls-78" x="1233.9" y="214.12" width="2.34" height="2.77"/><rect class="cls-79" x="1260" y="199.82" width="2.34" height="2.77"/><rect class="cls-80" x="1234.56" y="199.82" width="2.34" height="2.77"/><rect class="cls-81" x="1247.49" y="199.82" width="2.34" height="2.77"/><rect class="cls-82" x="1247.49" y="227.38" width="2.34" height="2.77"/><path class="cls-16" d="M1361.89,229.31H1340.3V206.1h21.59Zm-19.41-2.45h17.24V208.54h-17.24Z" transform="translate(-102.64 -2.55)"/><path class="cls-83" d="M1361.89,229.31H1340.3V206.1h21.59Zm-19.41-2.45h17.24V208.54h-17.24Z" transform="translate(-102.64 -2.55)"/><rect class="cls-84" x="1316.22" y="185.3" width="27.6" height="31.13"/><rect class="cls-85" x="1316.22" y="219.19" width="27.6" height="31.13"/><rect class="cls-86" x="1213.58" y="191.35" width="13.18" height="3.89"/><polygon class="cls-15" points="1157.45 169.81 1214.2 118.4 1227.51 137.09 1170.76 188.51 1157.45 169.81"/><polygon class="cls-16" points="1165.39 171.26 1172.33 164.94 1181.34 177.53 1174.41 183.85 1165.39 171.26"/><polygon class="cls-87" points="1165.39 171.26 1172.33 164.94 1181.34 177.53 1174.41 183.85 1165.39 171.26"/><polygon class="cls-16" points="1171.93 165.08 1178.85 158.79 1187.83 171.36 1180.9 177.65 1171.93 165.08"/><polygon class="cls-88" points="1171.93 165.08 1178.85 158.79 1187.83 171.36 1180.9 177.65 1171.93 165.08"/><polygon class="cls-16" points="1178.83 158.86 1185.75 152.57 1194.73 165.14 1187.8 171.43 1178.83 158.86"/><polygon class="cls-89" points="1178.83 158.86 1185.75 152.57 1194.73 165.14 1187.8 171.43 1178.83 158.86"/><polygon class="cls-16" points="1185.72 152.63 1192.65 146.34 1201.62 158.91 1194.7 165.2 1185.72 152.63"/><polygon class="cls-90" points="1185.72 152.63 1192.65 146.34 1201.62 158.91 1194.7 165.2 1185.72 152.63"/><polygon class="cls-16" points="1192.95 146.24 1199.89 139.92 1208.9 152.51 1201.96 158.83 1192.95 146.24"/><polygon class="cls-16" points="1199.89 139.87 1206.83 133.55 1215.84 146.14 1208.9 152.46 1199.89 139.87"/><polygon class="cls-16" points="1206.42 133.95 1213.35 127.66 1222.32 140.23 1215.39 146.52 1206.42 133.95"/><polygon class="cls-91" points="1214.57 147.35 1208.65 152.59 1199.67 140.02 1205.6 134.77 1214.57 147.35"/><polygon class="cls-92" points="1205.6 134.76 1212.53 128.47 1221.5 141.04 1214.58 147.33 1205.6 134.76"/><path class="cls-16" d="M1294.38,174.8v38.66h-6V174.8a3.37,3.37,0,0,1,2-3.17v-3.86a1.08,1.08,0,1,1,2.14,0v3.93A3.38,3.38,0,0,1,1294.38,174.8Z" transform="translate(-102.64 -2.55)"/><path class="cls-93" d="M1294.38,174.8v38.66h-6V174.8a3.37,3.37,0,0,1,2-3.17v-3.86a1.08,1.08,0,1,1,2.14,0v3.93A3.38,3.38,0,0,1,1294.38,174.8Z" transform="translate(-102.64 -2.55)"/><path class="cls-16" d="M1285.86,199.6h11a1.4,1.4,0,0,1,1.31,1.47h0a1.4,1.4,0,0,1-1.31,1.47h-11a1.39,1.39,0,0,1-1.3-1.47h0A1.39,1.39,0,0,1,1285.86,199.6Z" transform="translate(-102.64 -2.55)"/><path class="cls-16" d="M1291.51,225.66h0c-2.37,0-4.34-4-4.34-6.69V201.25h8.58V219C1295.75,221.65,1293.88,225.66,1291.51,225.66Z" transform="translate(-102.64 -2.55)"/><path class="cls-94" d="M1285.86,199.6h11a1.4,1.4,0,0,1,1.31,1.47h0a1.4,1.4,0,0,1-1.31,1.47h-11a1.39,1.39,0,0,1-1.3-1.47h0A1.39,1.39,0,0,1,1285.86,199.6Z" transform="translate(-102.64 -2.55)"/><path class="cls-95" d="M1291.51,225.66h0c-2.37,0-4.34-4-4.34-6.69V202.49h8.58V219C1295.75,221.65,1293.88,225.66,1291.51,225.66Z" transform="translate(-102.64 -2.55)"/><path class="cls-96" d="M1346.92,244.42c-.22-1.27-.36-3.08.06-3.2C1347.88,240.94,1346.92,244.42,1346.92,244.42Z" transform="translate(-102.64 -2.55)"/><path class="cls-97" d="M1386.25,304.86c-.13,3.93-2.81,18.35-2.9,22.29,0,1.3.31,3.31-.06,4.58-.77,2.67-3.48,2.3-3.83.73l-.14-.79c-1.26-7.64.77-16.31,0-26.28-.46-6.09-2.59-17.84-4-17.92-.73,0-17.55,40.25-19,42.73-.72,1.25-2.74,1.05-3.72,2.06s8.16-30.51,12-47.17a60.07,60.07,0,0,0,1.74-10.54c.1-2.06-.48-2.75,1.19-3.36a16.65,16.65,0,0,1,4-.4c1.35-.12,13.92-.14,13.92.87C1385.34,277.13,1386.58,295.8,1386.25,304.86Z" transform="translate(-102.64 -2.55)"/><path class="cls-98" d="M1386.25,304.86c-.13,3.93-2.81,18.35-2.9,22.29,0,1.3.31,3.31-.06,4.58-.77,2.67-3.48,2.3-3.83.73l-.14-.79c-1.26-7.64.77-16.31,0-26.28-.46-6.09-2.59-17.84-4-17.92-.73,0-17.55,40.25-19,42.73-.72,1.25-2.74,1.05-3.72,2.06s8.16-30.51,12-47.17a60.07,60.07,0,0,0,1.74-10.54c.1-2.06-.48-2.75,1.19-3.36a16.65,16.65,0,0,1,4-.4c1.35-.12,13.92-.14,13.92.87C1385.34,277.13,1386.58,295.8,1386.25,304.86Z" transform="translate(-102.64 -2.55)"/><path class="cls-99" d="M1371.52,221.13c-.1-1.23-.61-1.9-1.11-1.9s-.81.66-.7,1.9a1.81,1.81,0,0,0,1.44,1.81C1371.65,222.94,1371.63,222.36,1371.52,221.13Z" transform="translate(-102.64 -2.55)"/><path class="cls-99" d="M1380.78,221.2c.07-1.23.58-1.89,1.11-1.89s.87.65.79,1.89a1.76,1.76,0,0,1-1.45,1.8C1380.7,223,1380.7,222.43,1380.78,221.2Z" transform="translate(-102.64 -2.55)"/><path class="cls-100" d="M1381.5,226.42a6.56,6.56,0,0,1-5.19,3.52c-2.73,0-5-2.61-5.45-3.66s1.43-14.51,2.54-15.64,5.6-.38,6,.21C1380.28,212.26,1381.79,223.81,1381.5,226.42Z" transform="translate(-102.64 -2.55)"/><path class="cls-99" d="M1380.4,216.49c-.4.21-2-4.16-2.27-4.89s-.27-1.49.12-1.69,1,.22,1.3.94S1380.78,216.28,1380.4,216.49Z" transform="translate(-102.64 -2.55)"/><path class="cls-99" d="M1372.05,216.16c-.41-.15.68-4.58.92-5.35s.77-1.26,1.16-1.11.55.89.31,1.66S1372.44,216.31,1372.05,216.16Z" transform="translate(-102.64 -2.55)"/><path class="cls-100" d="M1373.31,226.12h6.15l.92,6.13c-3.35,1.89-5.3,1.68-7.92-.42Z" transform="translate(-102.64 -2.55)"/><path class="cls-100" d="M1375.74,227.28c0-.12.22-.23.49-.23s.49.11.49.23-.22.15-.49.15S1375.74,227.41,1375.74,227.28Z" transform="translate(-102.64 -2.55)"/><path class="cls-97" d="M1381.78,224.19c.22-1.5.58-12.28-.31-13.7s-6.15-2.35-7-2.13a1.71,1.71,0,0,0-1.47,2,2.87,2.87,0,0,0-1.52.48c-.61.47-1.91,7.26-.87,12.4a5.4,5.4,0,0,0,5.44,4.41C1380,227.73,1381.51,226.06,1381.78,224.19Z" transform="translate(-102.64 -2.55)"/><path class="cls-97" d="M1374.65,208.77a1.87,1.87,0,0,1,1.54-.53,12.25,12.25,0,0,1,4.94,1,6.07,6.07,0,0,1,2.32,1.65,3.66,3.66,0,0,1,.82,2.87c-.29,1.54-1.74,2.5-2.22,4a10.52,10.52,0,0,0-.09,3.54,21.36,21.36,0,0,1-.19,2.89c-.27,1.87-1.79,3.54-5.71,3.43a5.42,5.42,0,0,1-5.44-4.41,28.35,28.35,0,0,1,.48-11.53,20.21,20.21,0,0,0,5.18.65,19.74,19.74,0,0,0,5.5-.72,63.83,63.83,0,0,1,.2,9" transform="translate(-102.64 -2.55)"/><path class="cls-16" d="M1365,231.29a5.18,5.18,0,0,0-2.68,1c-1.38,1.21-1.48,3.48-1.46,5.46a53.26,53.26,0,0,0,.51,8.18c.41,2.47,1.16,4.86,1.77,7.28a53.09,53.09,0,0,1,1.52,12.13c0,2.25,0,4.72,1.21,6.48s3.77,2.28,5.94,2.42a81.56,81.56,0,0,0,9.25.08c2.07-.1,4.27-.33,5.9-1.76,1.31-1.13,4.36-39.65,2-40.62a25.52,25.52,0,0,0-7.44-1.46C1375.88,230,1370.57,229.56,1365,231.29Z" transform="translate(-102.64 -2.55)"/><path class="cls-101" d="M1382.18,311.45c-.3,4.37-1,20.28-1,20.28l-1.84-.08c-1.26-7.64.77-16.31,0-26.28-.46-6.09-2.59-17.84-4-17.91.42-3.93,2.77-3.34,2.77-3.34a59.78,59.78,0,0,1,4.4,9.11C1383.9,297.37,1382.48,307.05,1382.18,311.45Z" transform="translate(-102.64 -2.55)"/><path class="cls-16" d="M1347.64,331.73a2,2,0,0,0-.63.95,1.68,1.68,0,0,0,.08.94,2.46,2.46,0,0,0,1.66,1.46,6.39,6.39,0,0,0,2.18.08l2.32-.18a5.51,5.51,0,0,0,1.74-.32,2.22,2.22,0,0,0,1.28-1.25,3.82,3.82,0,0,0,.16-1.38c0-2.17-.67-3.93-2.77-3.4A13.13,13.13,0,0,0,1347.64,331.73Z" transform="translate(-102.64 -2.55)"/><path class="cls-16" d="M1386.16,332.58a1.82,1.82,0,0,1,.55.85,1.4,1.4,0,0,1-.06.81,2.14,2.14,0,0,1-1.46,1.28,5.34,5.34,0,0,1-1.91.08l-2-.16a4.9,4.9,0,0,1-1.51-.27,2,2,0,0,1-1.13-1.11,3.3,3.3,0,0,1-.14-1.21c0-1.9.58-3.46,2.43-3A11.47,11.47,0,0,1,1386.16,332.58Z" transform="translate(-102.64 -2.55)"/><path class="cls-16" d="M1389,232s8.85,6,11.5,13.63-8.7,25.94-8.7,25.94l-2.43-2.88s5.93-13.84,5-17.3-4.5-6.69-4.5-6.69Z" transform="translate(-102.64 -2.55)"/><path class="cls-16" d="M1363,244s-12.58,6.35-17.69,3.23.15-18.75.15-18.75l3.42,1.3s-2.85,8,.42,9.16,13.07-6.59,13.07-6.59Z" transform="translate(-102.64 -2.55)"/><path class="cls-100" d="M1386.63,270.83a2.76,2.76,0,0,0-.83,1.07,3,3,0,0,0-.12,1.15,3.32,3.32,0,0,0,1,2.45,3,3,0,0,0,1.45.49,2.53,2.53,0,0,0,1,0,1,1,0,0,0,.71-.66,3.49,3.49,0,0,0,0-.65,6,6,0,0,1,1.27-2.85,1.28,1.28,0,0,0,.25-.61,1.22,1.22,0,0,0-.22-.68c-.38-.62-1.31-1.75-2.06-1.65S1387.21,270.29,1386.63,270.83Z" transform="translate(-102.64 -2.55)"/><path class="cls-100" d="M1350.93,226.47a2.53,2.53,0,0,0,.31-.86.8.8,0,0,0-.35-.78c-.4-.17-.88.29-1.27.1a1,1,0,0,1-.33-.36,5.44,5.44,0,0,1-.77-2.57,6,6,0,0,0-.12-1.47.93.93,0,0,0-1-.77c-.37.1-.58.53-.81.87s-.7.74-1,1.17a6.2,6.2,0,0,0-.85,2.94c-.17,1.3-.27,2.8.54,3.75.63.72,2.54,1.58,3.41,1.19S1350.44,227.41,1350.93,226.47Z" transform="translate(-102.64 -2.55)"/><path class="cls-14" d="M1743.67,127.08c-4.12-2.18-9-3.4-13.65-2.44a30.24,30.24,0,0,0-8.56,3.74l-24.31,13.82c-5.57,3.17-11.37,6.55-14.7,11.77-1.87,2.92-2.83,6.25-4.37,9.34-3.22,6.47-9,11.9-10.7,18.84-2.4,9.53,3.5,19.39,11.52,25.78s17.93,10.18,27.08,15c5.73,3,11.21,6.52,17.18,9.15a60.36,60.36,0,0,0,17.48,4.77c4.31.48,8.79.44,12.83-1,9.93-3.61,14.23-14.39,22.33-20.83,4.2-3.35,9.34-5.46,14-8.19s9.15-6.41,10.64-11.35c1.91-6.34-1.61-13.09-6.42-17.92s-10.92-8.41-15.89-13.1c-6.09-5.74-8.62-13.06-13.52-19.47A70.94,70.94,0,0,0,1743.67,127.08Z" transform="translate(-102.64 -2.55)"/><path class="cls-14" d="M1774.27,203.42c-4.52.89-7.92,4.24-11,7.42l-4.77,4.91a10.14,10.14,0,0,0-3,4.39c-.78,3.38,2.21,6.41,5,8.75l10.82,9.24a14.28,14.28,0,0,0,4.22,2.81,15.43,15.43,0,0,0,5.43.58c3.94-.07,8.19-.23,11.32-2.45,2.39-1.7,3.77-4.36,6-6.23,6.68-5.57,10.06-10.52,1.38-16C1792.11,212.06,1784.68,201.35,1774.27,203.42Z" transform="translate(-102.64 -2.55)"/><path class="cls-14" d="M1680.67,152.49a26.45,26.45,0,0,1,4.81,3.57,11.68,11.68,0,0,1,3.15,9.12,15.39,15.39,0,0,1-4.16,8.9c-1.37,1.51-3,2.81-4.26,4.4-.85,1.08-1.54,2.27-2.41,3.35a14.91,14.91,0,0,1-9.94,5.2,17.58,17.58,0,0,1-11.13-2.59c-4.85-3-7.74-8-11.41-12.26a20.15,20.15,0,0,1-3.36-4.5c-1.13-2.48-.85-5.29-.43-8,.34-2,.8-4.09,2.25-5.61,1.79-1.86,4.64-2.41,6.92-3.72,4.6-2.63,8-9,14.26-8.26,2.78.33,5,2.29,7.07,3.92A101.31,101.31,0,0,0,1680.67,152.49Z" transform="translate(-102.64 -2.55)"/><path class="cls-14" d="M1763.9,126.68c-3.38,2.83-6.69,6.1-7.72,10.22-1.2,4.75.85,9.69,3.7,13.76s6.54,7.64,9.19,11.83a11.45,11.45,0,0,0,2.92,3.63c1.51,1,3.49,1.19,5.36,1.34,7.49.54,15.89.83,21.54-3.77,4.69-3.81,6.15-10,9.67-14.75,1.26-1.7,2.82-3.3,3.37-5.3.9-3.27-1.15-6.57-3.33-9.26-4.77-5.89-12.63-14.38-20.55-16.4C1779.34,115.76,1770,121.59,1763.9,126.68Z" transform="translate(-102.64 -2.55)"/><polygon class="cls-16" points="1671.73 144.55 1628.37 169.88 1627.19 168.13 1670.56 142.81 1671.73 144.55"/><polygon class="cls-16" points="1571.48 161.46 1572.39 159.58 1608.2 174.36 1607.3 176.24 1571.48 161.46"/><path class="cls-16" d="M1653.48,142.27l16.11-1.4a4.32,4.32,0,0,1,4.79,3.68l3.83,37.83a4.17,4.17,0,0,1-4,4.44l-16.11,1.41a4.32,4.32,0,0,1-4.79-3.68l-3.83-37.83A4.17,4.17,0,0,1,1653.48,142.27Z" transform="translate(-102.64 -2.55)"/><path class="cls-102" d="M1653.48,142.27l16.11-1.4a4.32,4.32,0,0,1,4.79,3.68l3.83,37.83a4.17,4.17,0,0,1-4,4.44l-16.11,1.41a4.32,4.32,0,0,1-4.79-3.68l-3.83-37.83A4.17,4.17,0,0,1,1653.48,142.27Z" transform="translate(-102.64 -2.55)"/><path class="cls-16" d="M1653.43,142.23l16.21-1.42a4.27,4.27,0,0,1,4.73,3.64l3.74,36.94a4.13,4.13,0,0,1-3.92,4.4L1658,187.2a4.27,4.27,0,0,1-4.74-3.64l-3.74-36.94A4.12,4.12,0,0,1,1653.43,142.23Z" transform="translate(-102.64 -2.55)"/><path class="cls-15" d="M1654.41,143.19l14.58-1.28a3.85,3.85,0,0,1,4.26,3.28l3.36,33.15a3.72,3.72,0,0,1-3.53,3.95l-14.58,1.27a3.83,3.83,0,0,1-4.26-3.27l-3.36-33.15A3.71,3.71,0,0,1,1654.41,143.19Z" transform="translate(-102.64 -2.55)"/><path class="cls-103" d="M1662.75,152.87c-5.4.46-9.37,4.89-8.87,9.9s5.27,8.69,10.66,8.23,9.37-4.89,8.87-9.9v0C1672.9,156.08,1668.13,152.41,1662.75,152.87Zm1.68,16.56a7.83,7.83,0,0,1-8.69-6.67,7.59,7.59,0,0,1,7.19-8.06c4.38-.38,8.27,2.61,8.68,6.67h0a7.57,7.57,0,0,1-7.18,8.06Z" transform="translate(-102.64 -2.55)"/><polygon class="cls-16" points="1561.4 155.21 1562.24 163.49 1564.43 161.36 1562.83 161.49 1562.18 155.19 1561.4 155.21"/><polygon class="cls-16" points="1561.48 163.56 1560.64 155.28 1558.45 157.41 1560.06 157.27 1560.7 163.58 1561.48 163.56"/><g id="TWXE3W"><path class="cls-16" d="M1728.8,154.25c-15.53,0-28.13,11.67-28.14,26.08s12.58,26.11,28.11,26.12,28.09-11.64,28.13-26-12.17-26-27.57-26.16Zm4.17,12a.31.31,0,0,1,0-.21c.08-.11.17-.26.29-.28s.24.08.4.16c-.29.28-.17.43.09.56a.38.38,0,0,1,.16.12,2.27,2.27,0,0,0,.27.54,2.52,2.52,0,0,0,.58.32,5.3,5.3,0,0,1-.54.39,2.29,2.29,0,0,1-.59.24,2.26,2.26,0,0,1-.52,0,.11.11,0,0,0,0-.08l.36-.21c-.13-.14-.31-.26-.33-.39s.16-.28.26-.44c-.16-.24-.4-.35-.56-.24-.5.3-.54.39-.31.72l-1,.34c-.07-.31.33-.6,0-.88a.79.79,0,0,1,.65-.34h.39C1732.84,166.56,1733,166.51,1733,166.27Zm-8.06-6.66c.66.09,1.32.13,2,.18a.73.73,0,0,0,.66-.2.74.74,0,0,1,.38-.12c.52-.07,1-.16,1.55-.21a3.23,3.23,0,0,1,.82,0c.63.09,1.28.2,1.89.31a.54.54,0,0,1,.27.11,7,7,0,0,0-.79.06,1.67,1.67,0,0,0-.48.11c-.23.11-.45.23-.46.55a.72.72,0,0,1-.59.67,7.19,7.19,0,0,0-1,.4c-.17.07-.17.16,0,.25s.47.24.73.4c-.4.14-.4.14-1.24-.22l.36.55c-.54.14-1.09.28-1.64.4a3,3,0,0,0-1.4.61,2.68,2.68,0,0,1-1.38.44c-.26,0-.46.08-.46.39,0,.12-.12.25-.23.35a3.52,3.52,0,0,1-.45.3.91.91,0,0,1-1.22-.18.78.78,0,0,1-.17-.48,2.1,2.1,0,0,1,0-.5,2.28,2.28,0,0,1,.24-.53.76.76,0,0,1,.2-.2c.72-.73.56-1.5-.37-2a3.61,3.61,0,0,0-1.28-.4,1.39,1.39,0,0,1-.45-.19c.62-.1,1.22-.17,1.81-.28a3.58,3.58,0,0,0,.74-.25,4.48,4.48,0,0,1,2-.38Zm6.16,4a.4.4,0,0,1-.19.34,5.12,5.12,0,0,1-.75.35.58.58,0,0,1-.69-.15,1,1,0,0,0-.38-.17.11.11,0,0,0,0-.09,3.44,3.44,0,0,1,.37-.14c.4-.11.79-.2,1.19-.29.18,0,.41,0,.48.15Zm-14-3.14.58-.14c.19,0,.45-.09.53-.35a.44.44,0,0,1,.28-.22,2.93,2.93,0,0,0,.29-.05c.29-.06.59-.1.89-.14a4.31,4.31,0,0,0,.71-.09,3.29,3.29,0,0,1,1.36-.2c.15,0,.29,0,.42,0h.43a.14.14,0,0,0,0,.09,3.83,3.83,0,0,1-1.71.71,6.63,6.63,0,0,0-2.42.87c-.23.14-.46.25-.64-.07h0c0-.06-.17-.1-.26-.11a5.07,5.07,0,0,1-.68-.11.82.82,0,0,1,.22-.16Zm-1.48.75-.08,0a.59.59,0,0,1,.83-.28,1.6,1.6,0,0,0,1.16.08l.06.05c-.06.08-.1.19-.17.22s-.38.08-.57.14a.32.32,0,0,0-.18.18.29.29,0,0,0,.16.17l.24.05c.66.19,1.31.34,2,.52a.26.26,0,0,1,.12.17,1.09,1.09,0,0,1,0,.26c-.12.49,0,.67.56.68a.35.35,0,0,1-.3.36c-.36.08-.71.19-1,.29-.16.05-.33.1-.28.32a.17.17,0,0,1-.07.13.94.94,0,0,1-1,0,.46.46,0,0,1,.06-.68.44.44,0,0,1,.24-.11c.21,0,.43-.06.64-.12a.34.34,0,0,0,.23-.15s-.06-.16-.13-.22a2.91,2.91,0,0,0-1.47-.66,4,4,0,0,0-.5-.06c-.4,0-.8-.06-1.2-.1-.17,0-.38,0-.39-.24a.33.33,0,0,1,.29-.39h.08a6.82,6.82,0,0,0,.79-.07.4.4,0,0,0,.31-.17c0-.16-.08-.29-.29-.29Zm3.48,7.21c.1.11.29.28.26.37a.44.44,0,0,1-.47.28,9.81,9.81,0,0,0-1.08-.08,2.62,2.62,0,0,1,1.26-.9l-.26.2a1,1,0,0,1,.29.13Zm1,23.26a4,4,0,0,0-.79.61,1.54,1.54,0,0,0-.26.67,9.59,9.59,0,0,1-.39,1.29c-.11.24-.43.39-.62.61a1.05,1.05,0,0,1-1.33.24c-.11.3.1.49.23.69s.19.32-.13.53-.56.43-.85.65a.68.68,0,0,0-.22.7,2.91,2.91,0,0,1-.09.65.8.8,0,0,0,0,.34c0,.23.1.45.13.68,0,.39.08.76.12,1.14,0,.14,0,.23.24.24a.29.29,0,0,1,.2.16c.12.21.21.43.31.65a.64.64,0,0,1-.85-.11h0a1.26,1.26,0,0,0-.69-.57,2.12,2.12,0,0,1-1.09-1,2.25,2.25,0,0,1-.46-1.48.76.76,0,0,0-.52-.89c-.08,0-.13-.16-.14-.26,0-.37-.07-.74-.11-1.12-.08-.79-.18-1.58-.23-2.37,0-.59,0-1.19,0-1.78v-.79a1.74,1.74,0,0,0-1.31-1.5.77.77,0,0,1-.66-.79.84.84,0,0,0-.51-.8,1.87,1.87,0,0,1-.9-1,.91.91,0,0,0-.25-.34.8.8,0,0,1-.26-.79,2.35,2.35,0,0,0,0-.59,1.72,1.72,0,0,1,0-.39,2.55,2.55,0,0,1,.43-1.07,5.18,5.18,0,0,0,.62-1.1,1,1,0,0,0-.37-1.18.54.54,0,0,0-.43,0,.79.79,0,0,1-.87,0,3.46,3.46,0,0,1-1.25-1.24.44.44,0,0,0-.22-.16,1.1,1.1,0,0,0-.4-.08,1.51,1.51,0,0,1-1-.44,1.46,1.46,0,0,0-1.15-.4.54.54,0,0,1-.18,0,4.92,4.92,0,0,1-2.24-1.19.94.94,0,0,1-.19-.79,23.61,23.61,0,0,1,1.15-4.67A24.35,24.35,0,0,1,1706,166c.56-.76,1.21-1.47,1.83-2.2.09-.11.18-.16.32-.07a.76.76,0,0,0,.61.08,14.92,14.92,0,0,0,1.5-.13,11.42,11.42,0,0,0,1.73-.5,1.45,1.45,0,0,0,.77-1.06c0-.12.08-.24.13-.36.15-.45.15-.45.64-.35l1,.22c-.29.09-.58.18-.85.29s-.19.17-.08.3.39.46.6.68c.06.05.21.1.26.07a2.88,2.88,0,0,1,1.3-.16,2.72,2.72,0,0,1-.4.51,1.27,1.27,0,0,1-.54.21c-.51.1-1,.16-1.53.24a.71.71,0,0,1-.73.56,3.91,3.91,0,0,0-1.8.76.77.77,0,0,0-.38,1c.06.16.11.35.37.23a.31.31,0,0,1,.18,0l.73.37c.25.12.43.24.68.15a.5.5,0,0,1,.14,0c-.06.39-.13.72-.2,1.1a.83.83,0,0,0,.72-.35c.48-.64,1-1.26,1.47-1.88a1.86,1.86,0,0,0,.21-.28h0a1.34,1.34,0,0,1,1.5-.62c.33.05.56.11.53.49,0,0,.16.15.25.16a2.23,2.23,0,0,0,1.28-.28.78.78,0,0,1,0,.18,1,1,0,0,1,0,.24,1.29,1.29,0,0,0,.85,1.55l.14.06a2.91,2.91,0,0,1-1.79.72,2.76,2.76,0,0,0-1.33.33,7.65,7.65,0,0,1-1.05.36,2.1,2.1,0,0,0-.33.26l0,.08,1.32-.11c-.05.3,0,.48.34.51.13,0,.24.17.4.3-.57.1-.85.68-1.58.54l.57-.49c-.27-.27-.34-.3-.69-.1s-.66.46-1,.68c-.09.07-.17.16-.27.17-.58.11-.87.56-1.24.91l-.09.07a.85.85,0,0,1-.63.32.49.49,0,0,0-.31.11.56.56,0,0,0-.19.33,1.1,1.1,0,0,1-.69,1.11,8.51,8.51,0,0,0-1.16.7,1,1,0,0,0-.22,1.13.91.91,0,0,1,0,.85c0,.07-.2.12-.31.12a.21.21,0,0,1-.2-.17c-.09-.33-.16-.69-.25-1a1.35,1.35,0,0,0-.19-.33l-.07,0V175l-.07.05-.29-.29a2.32,2.32,0,0,0-.46-.31.39.39,0,0,0-.49.15c-.18.22-.38.42-.57.62a5.55,5.55,0,0,0-.48-.49.32.32,0,0,0-.27-.06,1.48,1.48,0,0,0-.9.48,6.1,6.1,0,0,1-.79.73.56.56,0,0,0-.19.79.74.74,0,0,1,0,.36,1.28,1.28,0,0,0,1,1.48.82.82,0,0,0,1-.35c.07-.15.12-.3.2-.46a.36.36,0,0,1,.44-.22l0,0a.47.47,0,0,1,.15.42,6.59,6.59,0,0,1-.25.75c-.1.28,0,.4.29.48s.46.07.7.09a.41.41,0,0,1,.43.39v.08a4.4,4.4,0,0,0,0,1,1.16,1.16,0,0,0,.32.5.38.38,0,0,0,.36,0,.84.84,0,0,1,.71-.06l.28.08c.42.1.53,0,.82-.26a2.23,2.23,0,0,1,.64-.4.23.23,0,0,1,.21,0,.21.21,0,0,1,0,.19c-.24.19-.12.29.09.37l.5.19c-.32-.48.1-.65.29-.94l.22.15a1.4,1.4,0,0,0,1.09.4h.06a2.28,2.28,0,0,1,1.46.55,4.6,4.6,0,0,0,1.92.9,1,1,0,0,1,.72.43c.12.19.29.39.42.58a.37.37,0,0,1,0,.56.43.43,0,0,1-.25.13l-.33.15c.09.16.19.2.35.12a1.07,1.07,0,0,1,.39-.14.46.46,0,0,1,.27.13l-.06.17c0,.06-.05.15,0,.16a.36.36,0,0,0,.21,0,.21.21,0,0,0,.15-.07.66.66,0,0,1,.87-.06l.05.06s.12,0,.12.08c0,.45.38.27.58.19a.89.89,0,0,1,.64,0c.51.2,1,.37,1.57.54a.35.35,0,0,1,.28.33,2.49,2.49,0,0,1-.71,2.13.52.52,0,0,1-.17.12c-.23.09-.25.27-.25.47a12.62,12.62,0,0,1-.09,1.51,2.93,2.93,0,0,1-.34.89c-.12.23-.24.47-.63.4a.6.6,0,0,0-.34.11,1.83,1.83,0,0,0-.24.13Zm29.48-2c-.22.5-.35,1-.54,1.56a2.64,2.64,0,0,1-.23.44c-.28.48-.28.48-.86.39a.77.77,0,0,1-.54-1v0a2.17,2.17,0,0,0,.36-.55,1.23,1.23,0,0,0,0-.66.76.76,0,0,1,.5-.74.43.43,0,0,0,.22-.09c.29-.26.57-.53.83-.79a1.91,1.91,0,0,0,.16-.27A2.37,2.37,0,0,1,1749.54,189.61Zm5.33-13.44a.78.78,0,0,0-.68-.27,6.65,6.65,0,0,1-2.66-.4,6.55,6.55,0,0,1-1.71-.7,4.7,4.7,0,0,0-1.39-.44.54.54,0,0,1,0,.22c-.11.62.4.92.79,1.28.17.15.32.3.51.48l1.16-.29a.66.66,0,0,1,.76.27,7.76,7.76,0,0,0,.65.63c.21.21.16.27-.08.43a6.76,6.76,0,0,0-1.71,1.26.74.74,0,0,1-.21.18l-1.12.66a1.07,1.07,0,0,1-1.4-.36l-.06-.13a3.62,3.62,0,0,0-.82-1.38,3,3,0,0,1-.42-.79,1.47,1.47,0,0,0-.75-.7,1,1,0,0,1-.62-.62c-.15-.39-.36-.76-.54-1.15-.42.16-.42.16-.3.54a7,7,0,0,0,.92,1.86,13.73,13.73,0,0,1,1.75,2.85c.1.27.18.56.3.83s.37.44.78.23a.26.26,0,0,1,.13-.06h1.58a9.71,9.71,0,0,1-.26,1.19,2.08,2.08,0,0,1-.49.88,11.29,11.29,0,0,1-1.16.79.67.67,0,0,0-.26.24c-.45.79-.88,1.55-1.33,2.32-.11.19-.15.35,0,.51.62.63.43,1.39.45,2.11,0,.09-.14.19-.25.24a4,4,0,0,0-1.32.9,1.43,1.43,0,0,0-.3.57,4.28,4.28,0,0,1-.63,1.78c-.51.79-1,1.62-1.41,2.44a.55.55,0,0,1-.47.33l-1.34,0c-.19,0-.39.05-.59.07a.39.39,0,0,1-.26-.07c-.17-.12-.31-.26-.43-.36a2.32,2.32,0,0,0-.33-1.19,2.88,2.88,0,0,0-.3-.39,2.3,2.3,0,0,1-.46-1.33,1.61,1.61,0,0,0-.26-.76,3.57,3.57,0,0,1-.61-1.58,2.31,2.31,0,0,1,.19-.93,1.76,1.76,0,0,1,.17-.37,1.07,1.07,0,0,0,.07-.82,6.53,6.53,0,0,0-1.28-2.6.62.62,0,0,1,0-.71,5.48,5.48,0,0,1,.31-.52c.12-.18.11-.28-.09-.34a.5.5,0,0,1-.38-.4c0-.05-.17-.13-.25-.13a1.34,1.34,0,0,1-1.07-.36,1.19,1.19,0,0,0-.68-.14,1.84,1.84,0,0,0-.52.1l-2.41.53a1.14,1.14,0,0,1-1.07-.31,1.16,1.16,0,0,0-.24-.2,1.12,1.12,0,0,1-.58-.93.54.54,0,0,0-.31-.39c-.73-.22-.83-.84-1-1.37a.61.61,0,0,1,.14-.47.5.5,0,0,0,.13-.62,1.73,1.73,0,0,1,.16-1.73,2.37,2.37,0,0,1,.83-.95c.14-.08.18-.31.31-.4A2.52,2.52,0,0,0,1731,174a1.56,1.56,0,0,1,.48-.51c.29-.26.6-.5.89-.76s.27-.15.39,0a.29.29,0,0,0,.24.13l1.33-.16a2.83,2.83,0,0,1,.4-.08,4.21,4.21,0,0,0,1.86-.37.64.64,0,0,1,.43,0s0,.19,0,.28a.9.9,0,0,0,.41.72l.65.59c.05,0,.09.08.14.09.43.07.89.14,1.34.18a.37.37,0,0,0,.43-.33c.06-.18.3-.33.45-.49a.2.2,0,0,0,0,.08,1.48,1.48,0,0,0,.31.25,4.07,4.07,0,0,0,.76.28,2,2,0,0,0,.59,0,1.71,1.71,0,0,1,.32,0c.47.07.93.12,1.4.21a.45.45,0,0,0,.43-.12.89.89,0,0,0,.49-1.08,3.33,3.33,0,0,1-.1-.55,1.13,1.13,0,0,0-.9.07.9.9,0,0,1-1.06-.09,2.05,2.05,0,0,1-1-1.19c.45.21.63-.05.85-.42-.56.12-1.07.22-1.57.35a.29.29,0,0,0-.23.35.36.36,0,0,0,0,.09.24.24,0,0,1,.05.18,1.49,1.49,0,0,1-.09.3c-.14-.05-.35-.07-.43-.17s-.14-.36-.37-.42a.11.11,0,0,1-.06-.09c0-.44-.38-.65-.58-1,0-.08-.21-.13-.33-.13a1,1,0,0,1-.78-.37,1.07,1.07,0,0,0-.26-.26c-.16-.11-.35-.19-.5,0a.32.32,0,0,0,0,.48l0,0a2.64,2.64,0,0,0,1,.69c.27.08.39.31.52.53a.83.83,0,0,1-1.24-.29,3.68,3.68,0,0,0-.32-.37,6.05,6.05,0,0,0-.61-.63c-.3-.25-.88-.27-.95.21a.83.83,0,0,1,0,.15l-.2-.06a.74.74,0,0,0-.91.32,3.84,3.84,0,0,1-.27.29,1.05,1.05,0,0,0-.2.27,1.11,1.11,0,0,1-.85.79,10.94,10.94,0,0,1-1.71.13.36.36,0,0,1-.25-.23,5,5,0,0,1,0-1.09.82.82,0,0,1,.86-.6h1.18c.15,0,.25,0,.23-.2a.67.67,0,0,1,0-.2c.08-.43.06-.48-.36-.71l-.4-.19c-.06,0-.14-.1-.13-.14a.21.21,0,0,1,.14-.15,2.33,2.33,0,0,1,.46-.08,1.55,1.55,0,0,0,1.49-.86,1,1,0,0,1,.78-.55c.56-.08.66-.21.74-.75a1.93,1.93,0,0,1,.15-.4h.12a4.87,4.87,0,0,1,.24.57.48.48,0,0,0,.42.39,3.53,3.53,0,0,0,.65,0c.37,0,.73-.11,1.1-.16.13,0,.22,0,.26-.18s.22-.25.34-.36.3-.17.31-.39a.61.61,0,0,1,.59-.42.42.42,0,0,1,.28.18,1.27,1.27,0,0,1,.17.4,1.25,1.25,0,0,0,.43-1.31,3.58,3.58,0,0,1-.45.09,2.29,2.29,0,0,1-.64,0c-.62-.13-.71-.4-.38-.87.11-.16.24-.5.18-.54-.23-.16-.42,0-.6.18a2.23,2.23,0,0,0-.85,1.16,4.38,4.38,0,0,1-.53,1.14c-.1.15-.4.21-.63.24s-.21-.17-.29-.27a2.85,2.85,0,0,1-.23-.37.16.16,0,0,0,0,.09l-1.31.06c0-.05,0-.11,0-.17-.19-.87-.27-.75.63-1.09a2.55,2.55,0,0,0,.71-.55c.21-.16.43-.32.62-.49l.11-.1a3.52,3.52,0,0,1,2.45-1,6,6,0,0,1,2.42.4l1.31.36c-.6.44-1.14,0-1.65.08,0,0,0,.05,0,.06a7.44,7.44,0,0,0,.94.83.48.48,0,0,0,.61-.18l0-.1a.3.3,0,0,1,.33-.26.61.61,0,0,0,.57-.36.32.32,0,0,1,.43-.19c0,.21.07.31.29.24a.8.8,0,0,0,.25-.11,1.48,1.48,0,0,1,.88-.19,4.6,4.6,0,0,0,1.28-.24c.38-.09.59-.06.79.14a25.88,25.88,0,0,1,4.58,5.88,24.07,24.07,0,0,1,2.89,8.16.14.14,0,0,1,0,.09c-.64.15-1-.32-1.31-.67Z" transform="translate(-102.64 -2.55)"/><path class="cls-15" d="M1756.22,176.86c-.69.13-1-.34-1.37-.69a.78.78,0,0,0-.68-.27,6.51,6.51,0,0,1-2.66-.4,6.35,6.35,0,0,1-1.7-.7,4.17,4.17,0,0,0-1.39-.43.8.8,0,0,1,0,.21c-.11.62.39.92.79,1.28.16.14.32.3.51.48l1.16-.29a.66.66,0,0,1,.76.27,7.76,7.76,0,0,0,.65.63c.21.21.16.27-.08.43a6.73,6.73,0,0,0-1.71,1.25.67.67,0,0,1-.22.19l-1.12.66a1.06,1.06,0,0,1-1.39-.35.83.83,0,0,1-.07-.13,3.77,3.77,0,0,0-.81-1.39,3.36,3.36,0,0,1-.43-.79,1.41,1.41,0,0,0-.74-.7,1,1,0,0,1-.62-.62,11,11,0,0,0-.54-1.15c-.42.16-.42.16-.3.54a7,7,0,0,0,.92,1.86,13.73,13.73,0,0,1,1.75,2.85c.1.27.18.56.3.83s.37.45.78.22l.13-.05h1.58a9.68,9.68,0,0,1-.25,1.19,2.16,2.16,0,0,1-.5.88,9.46,9.46,0,0,1-1.16.79.86.86,0,0,0-.26.24c-.45.8-.87,1.56-1.33,2.33a.36.36,0,0,0,0,.51c.62.62.43,1.38.45,2.11,0,.08-.14.18-.24.24a4.06,4.06,0,0,0-1.33.9,1.34,1.34,0,0,0-.29.57,4.4,4.4,0,0,1-.64,1.77c-.5.79-1,1.63-1.4,2.45a.58.58,0,0,1-.48.32c-.45,0-.9,0-1.35.08-.2,0-.39.05-.59.06a.34.34,0,0,1-.24-.09c-.17-.12-.31-.26-.43-.36a2.28,2.28,0,0,0-.34-1.19,3.69,3.69,0,0,0-.29-.4,2.19,2.19,0,0,1-.47-1.32,1.71,1.71,0,0,0-.25-.76,3.47,3.47,0,0,1-.62-1.58,2.49,2.49,0,0,1,.19-.93,1.59,1.59,0,0,1,.18-.4,1,1,0,0,0,.06-.81,6.64,6.64,0,0,0-1.28-2.61.64.64,0,0,1,0-.7,5.69,5.69,0,0,1,.33-.52c.11-.15.1-.28-.1-.34a.48.48,0,0,1-.37-.4c0-.06-.17-.14-.26-.13a1.32,1.32,0,0,1-1.06-.36,1.22,1.22,0,0,0-.69-.14,2.27,2.27,0,0,0-.52.09l-2.4.54a1.2,1.2,0,0,1-1.08-.31,1.21,1.21,0,0,0-.24-.21,1.12,1.12,0,0,1-.58-.93.52.52,0,0,0-.31-.37c-.73-.22-.83-.83-1-1.37a.61.61,0,0,1,.14-.47.5.5,0,0,0,.13-.62,1.73,1.73,0,0,1,.16-1.73,2.52,2.52,0,0,1,.83-1c.14-.08.17-.31.31-.41A2.7,2.7,0,0,0,1731,174a1.53,1.53,0,0,1,.46-.52c.3-.26.61-.5.91-.75s.26-.16.39,0a.34.34,0,0,0,.23.13l1.33-.17a2.79,2.79,0,0,1,.4-.07,4.21,4.21,0,0,0,1.86-.4.7.7,0,0,1,.43,0s0,.18,0,.28a.9.9,0,0,0,.42.72c.21.2.43.4.65.58.05,0,.09.09.14.1.43.07.89.14,1.34.18a.4.4,0,0,0,.45-.33c.06-.19.29-.33.43-.5l0,.09a1.57,1.57,0,0,0,.32.24,4,4,0,0,0,.75.29,2.32,2.32,0,0,0,.59,0h.32c.47.07.94.12,1.4.21a.48.48,0,0,0,.43-.12.89.89,0,0,0,.48-1.07,5.25,5.25,0,0,1-.09-.55,1.09,1.09,0,0,0-.9.06.93.93,0,0,1-1.07-.09,2.12,2.12,0,0,1-1-1.17c.43.21.64,0,.86-.42-.57.12-1.07.22-1.57.35a.28.28,0,0,0-.23.35.18.18,0,0,0,0,.09.31.31,0,0,1,0,.18,1.32,1.32,0,0,1-.1.3c-.14-.05-.34-.07-.42-.17s-.14-.36-.37-.42a.13.13,0,0,1-.07-.09c0-.44-.37-.65-.57-1a.51.51,0,0,0-.33-.13,1,1,0,0,1-.78-.38,1.29,1.29,0,0,0-.27-.25c-.15-.12-.34-.19-.49,0a.31.31,0,0,0,0,.46l0,0a2.74,2.74,0,0,0,1,.7.89.89,0,0,1,.52.52.83.83,0,0,1-1.12-.11.94.94,0,0,1-.12-.18,3.57,3.57,0,0,0-.31-.37,7.47,7.47,0,0,0-.62-.64c-.29-.24-.88-.26-.94.22,0,0,0,.1,0,.15l-.19,0a.73.73,0,0,0-.92.32l-.27.28a1.05,1.05,0,0,0-.2.27,1.08,1.08,0,0,1-.85.79,10.76,10.76,0,0,1-1.71.14.37.37,0,0,1-.24-.23,5,5,0,0,1,0-1.09.8.8,0,0,1,.85-.6h1.19c.15,0,.25,0,.23-.21a.6.6,0,0,1,0-.19c.07-.43,0-.47-.37-.71-.12-.07-.26-.12-.39-.18s-.14-.11-.13-.15a.25.25,0,0,1,.14-.16,3.4,3.4,0,0,1,.46-.07,1.53,1.53,0,0,0,1.48-.85.92.92,0,0,1,.78-.55c.57-.09.67-.22.75-.76a1.49,1.49,0,0,1,.15-.4h.12a4.53,4.53,0,0,1,.23.57.48.48,0,0,0,.43.39,3.42,3.42,0,0,0,.64,0c.38,0,.74-.1,1.11-.15.14,0,.22,0,.26-.19s.21-.24.34-.36.29-.17.3-.39.39-.45.6-.42a.57.57,0,0,1,.29.19,2,2,0,0,1,.16.4,1.27,1.27,0,0,0,.43-1.31,3.58,3.58,0,0,1-.45.09,2.36,2.36,0,0,1-.65,0c-.61-.12-.7-.39-.37-.86.11-.17.24-.51.18-.55-.23-.16-.43,0-.6.18a2.34,2.34,0,0,0-.86,1.16,3.87,3.87,0,0,1-.53,1.15c-.09.14-.4.2-.62.23s-.21-.16-.3-.27-.16-.24-.23-.37l0,.09-1.28.07c0-.07,0-.12,0-.17-.19-.88-.27-.76.63-1.09a2.76,2.76,0,0,0,.71-.55l.62-.5a.44.44,0,0,0,.11-.09,3.48,3.48,0,0,1,2.45-1,5.84,5.84,0,0,1,2.42.39l1.31.36c-.59.44-1.14,0-1.66.08a.1.1,0,0,1,0,.06,8.3,8.3,0,0,0,1,.83.47.47,0,0,0,.61-.18.29.29,0,0,0,0-.1.29.29,0,0,1,.32-.25.64.64,0,0,0,.58-.37.32.32,0,0,1,.43-.19c0,.22.07.31.3.24a.94.94,0,0,0,.23-.1,1.46,1.46,0,0,1,.89-.19,4.77,4.77,0,0,0,1.25-.24.75.75,0,0,1,.8.13,26.46,26.46,0,0,1,4.58,5.88,24.37,24.37,0,0,1,2.89,8.16Z" transform="translate(-102.64 -2.55)"/><path class="cls-15" d="M1712.5,166.85l-.21,1.09a.85.85,0,0,0,.72-.34c.48-.64,1-1.25,1.47-1.88a3.25,3.25,0,0,0,.23-.29,1.32,1.32,0,0,1,1.49-.62c.33.05.56.12.54.49,0,0,.15.16.24.16a2.16,2.16,0,0,0,1.27-.27.49.49,0,0,1,.06.17,1,1,0,0,1,0,.25,1.28,1.28,0,0,0,.85,1.54l.13.06a2.9,2.9,0,0,1-1.79.73,2.74,2.74,0,0,0-1.32.32,8.06,8.06,0,0,1-1,.37,1.46,1.46,0,0,0-.34.26l0,.08,1.33-.11c-.05.3,0,.48.34.51.13,0,.24.17.41.29-.58.1-.86.68-1.59.54l.57-.49c-.27-.27-.34-.29-.69-.09s-.67.45-1,.68c-.09.06-.17.16-.26.17-.6.1-.88.55-1.26.91a1,1,0,0,1-.71.39.49.49,0,0,0-.31.11.51.51,0,0,0-.19.33,1.12,1.12,0,0,1-.69,1.11,8.51,8.51,0,0,0-1.16.7,1,1,0,0,0-.22,1.13.91.91,0,0,1,0,.85c0,.07-.2.12-.31.13s-.18-.11-.2-.18c-.09-.34-.15-.69-.24-1a1.38,1.38,0,0,0-.2-.33l-.07,0v.4l-.07.05a4,4,0,0,0-.29-.29,2.1,2.1,0,0,0-.46-.32.38.38,0,0,0-.48.15c-.18.22-.39.42-.58.61a5.44,5.44,0,0,0-.48-.48.32.32,0,0,0-.27-.06,1.48,1.48,0,0,0-.9.48,5.51,5.51,0,0,1-.79.73.58.58,0,0,0-.19.79.69.69,0,0,1,0,.35,1.28,1.28,0,0,0,1,1.48.81.81,0,0,0,.95-.35c.08-.15.13-.3.2-.45a.37.37,0,0,1,.45-.22h0a.48.48,0,0,1,.15.42,4.26,4.26,0,0,1-.26.76c-.09.28,0,.4.3.47s.46.07.7.09a.41.41,0,0,1,.43.39.28.28,0,0,1,0,.09,5,5,0,0,0,0,.95,1.16,1.16,0,0,0,.32.5.41.41,0,0,0,.36,0,.8.8,0,0,1,.71-.06l.28.07a.69.69,0,0,0,.82-.26,2.65,2.65,0,0,1,.64-.4.24.24,0,0,1,.2.05.17.17,0,0,1,0,.19c-.23.19-.1.29.11.37l.49.19c-.31-.48.11-.64.3-.93a1.53,1.53,0,0,1,.21.14,1.4,1.4,0,0,0,1.09.4,2.16,2.16,0,0,1,1.51.56,4.68,4.68,0,0,0,1.94.9,1,1,0,0,1,.74.47c.13.21.3.4.43.59a.38.38,0,0,1,0,.56.44.44,0,0,1-.24.13l-.33.15c.09.16.18.21.35.12a1.34,1.34,0,0,1,.38-.14.49.49,0,0,1,.28.13,1,1,0,0,0-.06.17.57.57,0,0,0,0,.16.38.38,0,0,0,.21.05.26.26,0,0,0,.15-.07.64.64,0,0,1,.86-.07.23.23,0,0,1,.07.07s.11.05.11.07c0,.46.38.27.59.2a.81.81,0,0,1,.63,0c.51.21,1,.37,1.58.54a.36.36,0,0,1,.28.33,2.47,2.47,0,0,1-.72,2.13.4.4,0,0,1-.16.12c-.23.09-.25.27-.26.47a12.62,12.62,0,0,1-.08,1.51,3.27,3.27,0,0,1-.34.9c-.12.23-.23.46-.63.39-.18,0-.4.14-.58.25a4.16,4.16,0,0,0-.85.59,1.77,1.77,0,0,0-.26.67,9.59,9.59,0,0,1-.39,1.29c-.11.24-.42.39-.62.61a1.06,1.06,0,0,1-1.33.24c-.11.3.11.49.23.69s.2.32-.13.53-.57.43-.85.65a.69.69,0,0,0-.21.7,2.84,2.84,0,0,1-.1.65,1.33,1.33,0,0,0,0,.34c0,.23.1.45.13.68,0,.38.08.76.12,1.14,0,.14.06.23.25.24a.29.29,0,0,1,.2.16,6.13,6.13,0,0,1,.3.64.63.63,0,0,1-.84-.09h0a1.26,1.26,0,0,0-.69-.57,2.09,2.09,0,0,1-1.08-1,2.32,2.32,0,0,1-.47-1.48.75.75,0,0,0-.52-.89c-.07,0-.13-.16-.14-.26,0-.37-.06-.74-.1-1.11-.08-.79-.19-1.59-.24-2.38,0-.59,0-1.18,0-1.78v-.79a1.74,1.74,0,0,0-1.3-1.5.76.76,0,0,1-.66-.79.84.84,0,0,0-.51-.8,1.87,1.87,0,0,1-.9-1,1,1,0,0,0-.25-.34.8.8,0,0,1-.26-.79,2.83,2.83,0,0,0,0-.58,1.72,1.72,0,0,1,0-.39,2.46,2.46,0,0,1,.43-1.06,5.72,5.72,0,0,0,.62-1.1,1,1,0,0,0-.37-1.19.5.5,0,0,0-.43,0,.8.8,0,0,1-.88-.05,3.56,3.56,0,0,1-1.25-1.25.45.45,0,0,0-.22-.16,1.67,1.67,0,0,0-.4-.08,1.39,1.39,0,0,1-1-.44,1.45,1.45,0,0,0-1.15-.39h-.18a5,5,0,0,1-2.24-1.21.92.92,0,0,1-.2-.79A24.53,24.53,0,0,1,1706,166c.57-.75,1.22-1.46,1.83-2.19.1-.11.19-.16.33-.07a.86.86,0,0,0,.61.08c.5-.06,1,0,1.5-.13a10.13,10.13,0,0,0,1.73-.51,1.44,1.44,0,0,0,.78-1c0-.12.08-.24.12-.36.14-.45.14-.45.64-.34l1,.21c-.28.09-.58.18-.85.29s-.19.16-.07.3.38.46.59.67c.06.06.21.11.26.08a2.85,2.85,0,0,1,1.28-.16,2.69,2.69,0,0,1-.39.5,1.33,1.33,0,0,1-.55.22c-.5.09-1,.16-1.53.23a.69.69,0,0,1-.73.57,3.83,3.83,0,0,0-1.79.76.78.78,0,0,0-.38,1c.05.15.1.33.36.21a.58.58,0,0,1,.19.06l.73.36c.25.11.43.24.68.15A.2.2,0,0,1,1712.5,166.85Z" transform="translate(-102.64 -2.55)"/><path class="cls-15" d="M1720.33,160.49c.62-.09,1.22-.17,1.81-.28a5.43,5.43,0,0,0,.75-.24,4.2,4.2,0,0,1,2-.36c.65.09,1.31.13,2,.19a.77.77,0,0,0,.67-.21c.07-.08.25-.09.38-.12.52-.07,1-.16,1.55-.21a3.23,3.23,0,0,1,.82,0c.63.09,1.28.2,1.89.31a.54.54,0,0,1,.27.11,7,7,0,0,0-.79.06,1.53,1.53,0,0,0-.47.11c-.25.11-.46.23-.47.55a.72.72,0,0,1-.59.67c-.34.12-.68.25-1,.4-.17.07-.17.16,0,.24l.74.38c-.4.15-.4.15-1.24-.21l.36.55c-.54.13-1.09.28-1.65.39a3.11,3.11,0,0,0-1.4.62,2.7,2.7,0,0,1-1.37.43c-.26,0-.47.09-.46.39,0,.11-.13.25-.23.34a2.53,2.53,0,0,1-.42.31.91.91,0,0,1-1.23-.18.79.79,0,0,1-.17-.49,1.1,1.1,0,0,1,.19-1,1,1,0,0,1,.19-.21c.73-.72.57-1.49-.37-2a3.2,3.2,0,0,0-1.28-.4A1.23,1.23,0,0,1,1720.33,160.49Z" transform="translate(-102.64 -2.55)"/><path class="cls-15" d="M1715.5,161.14a.58.58,0,0,1,.82-.28,1.63,1.63,0,0,0,1.17.08l.06.05c-.06.08-.1.19-.17.22s-.38.08-.57.14a.32.32,0,0,0-.18.18.25.25,0,0,0,.16.16c.73.2,1.47.4,2.2.58a.24.24,0,0,1,.13.17.75.75,0,0,1,0,.26c-.11.49,0,.67.57.68a.35.35,0,0,1-.31.36c-.35.09-.69.18-1,.29-.15.05-.33.1-.27.32a.22.22,0,0,1-.09.13.91.91,0,0,1-1,0,.46.46,0,0,1,0-.68.66.66,0,0,1,.27-.12c.21-.05.42-.06.63-.11a.47.47,0,0,0,.25-.16.56.56,0,0,0-.14-.22,3.15,3.15,0,0,0-2-.72c-.4,0-.8-.06-1.2-.1-.17,0-.39,0-.4-.24a.35.35,0,0,1,.29-.39h.09a6.82,6.82,0,0,0,.79-.07.4.4,0,0,0,.31-.17c0-.18-.08-.29-.29-.3C1715.56,161.18,1715.54,161.16,1715.5,161.14Z" transform="translate(-102.64 -2.55)"/><path class="cls-15" d="M1749.44,187.86a2.36,2.36,0,0,1,.08,1.75c-.21.5-.35,1-.52,1.56a3.75,3.75,0,0,1-.24.44c-.28.48-.28.48-.86.39a.78.78,0,0,1-.53-1h0a3,3,0,0,0,.36-.56,1.43,1.43,0,0,0,0-.65.74.74,0,0,1,.5-.73.46.46,0,0,0,.22-.11c.28-.26.56-.52.83-.79A1.18,1.18,0,0,0,1749.44,187.86Z" transform="translate(-102.64 -2.55)"/><path class="cls-15" d="M1722.55,159.3a3.82,3.82,0,0,1-1.7.7,6.41,6.41,0,0,0-2.42.88c-.24.13-.48.25-.66-.09,0-.06-.16-.1-.25-.11a5.07,5.07,0,0,1-.68-.11.74.74,0,0,1,.22-.14c.19-.06.38-.08.58-.14s.45-.08.53-.35a.44.44,0,0,1,.28-.22c.39-.08.79-.13,1.18-.19a4.18,4.18,0,0,0,.71-.09,3.15,3.15,0,0,1,1.36-.19c.14,0,.29,0,.43,0h.42Z" transform="translate(-102.64 -2.55)"/><path class="cls-15" d="M1733.43,167c-.17-.24-.4-.35-.57-.24-.5.3-.53.39-.3.72l-1,.34c-.06-.32.33-.6,0-.88a.75.75,0,0,1,.66-.34h.38c.21,0,.36-.07.33-.31a.31.31,0,0,1,0-.21c.08-.11.17-.25.28-.28s.24.09.4.16c-.29.28-.17.44.1.56a.37.37,0,0,1,.15.13,2.27,2.27,0,0,0,.27.54,2.22,2.22,0,0,0,.59.31,5.12,5.12,0,0,1-.55.4,2.81,2.81,0,0,1-.59.24,2.17,2.17,0,0,1-.51,0V168l.35-.21c-.12-.14-.31-.27-.32-.4S1733.33,167.15,1733.43,167Z" transform="translate(-102.64 -2.55)"/><path class="cls-15" d="M1729,163.85a2.46,2.46,0,0,1,.38-.14l1.18-.29c.19,0,.42,0,.47.15a.37.37,0,0,1-.18.34,4.78,4.78,0,0,1-.76.35.57.57,0,0,1-.68-.15,1.1,1.1,0,0,0-.38-.17Z" transform="translate(-102.64 -2.55)"/><path class="cls-15" d="M1717.77,169a2.62,2.62,0,0,1,1.26-.9l-.26.2c.12.05.23.07.28.13s.29.28.26.37a.41.41,0,0,1-.46.28C1718.5,169,1718.15,169,1717.77,169Z" transform="translate(-102.64 -2.55)"/></g><polygon class="cls-16" points="1639.37 194.09 1641.11 192.82 1666.64 222.98 1664.89 224.25 1639.37 194.09"/><path class="cls-104" d="M1743.32,202.41l0,.3c-13.31,7.43-30.59,3.43-38.59-8.93S1701,165.4,1714.31,158a29.67,29.67,0,0,1,9.88-3.37,37.51,37.51,0,0,0-5.45,5.07c-.32.36-.65.74-1,1.13l-.75.95c-.17.25-.36.5-.54.76a26.68,26.68,0,0,0-1.79,2.93h0a21.35,21.35,0,0,0-2.13,6,17.91,17.91,0,0,0,.85,9.5,23.06,23.06,0,0,0,2.21,4.45,42.29,42.29,0,0,0,4.69,6.12C1730.93,203,1743.32,202.41,1743.32,202.41Z" transform="translate(-102.64 -2.55)"/><path class="cls-16" d="M1793.67,231.36l-29.93-.22a2.1,2.1,0,0,1-2.08-1.55l-5.44-21.84a2,2,0,0,1,1.56-2.4,2.2,2.2,0,0,1,.57,0l29.94.22a2.13,2.13,0,0,1,2.09,1.56l5.43,21.81a2,2,0,0,1-1.61,2.42A3.07,3.07,0,0,1,1793.67,231.36Z" transform="translate(-102.64 -2.55)"/><path class="cls-105" d="M1791.89,229l-27-.21a1.9,1.9,0,0,1-1.88-1.34l-4.94-18.94a1.74,1.74,0,0,1,1.43-2.08,1.83,1.83,0,0,1,.47,0l27,.2a1.92,1.92,0,0,1,1.88,1.34l4.91,18.94a1.77,1.77,0,0,1-1.45,2.09A2.12,2.12,0,0,1,1791.89,229Z" transform="translate(-102.64 -2.55)"/><path class="cls-16" d="M1764.14,230.29l39,.3a1.26,1.26,0,0,1,1.31,1.23h0a1.27,1.27,0,0,1-1.33,1.21h0l-39.05-.29a1.25,1.25,0,0,1-1.29-1.22h0v0a1.25,1.25,0,0,1,1.31-1.2Z" transform="translate(-102.64 -2.55)"/><path class="cls-16" d="M1781,230.69l31.39.29a1.14,1.14,0,0,1,1.18,1.11v.25a1.15,1.15,0,0,1-1.2,1.09l-31.4-.29a1.16,1.16,0,0,1-1.18-1.12v-.24A1.14,1.14,0,0,1,1781,230.69Z" transform="translate(-102.64 -2.55)"/><path class="cls-106" d="M1781,230.69l31.39.29a1.14,1.14,0,0,1,1.18,1.11v.25a1.15,1.15,0,0,1-1.2,1.09l-31.4-.29a1.16,1.16,0,0,1-1.18-1.12v-.24A1.14,1.14,0,0,1,1781,230.69Z" transform="translate(-102.64 -2.55)"/><path class="cls-15" d="M1776,212.59l2,8.08m0,0,1.86-2.34-1.55.32m0,0-1.49-6.16Z" transform="translate(-102.64 -2.55)"/><path class="cls-15" d="M1777.19,220.86l-2-8.08m0,0-1.86,2.35,1.56-.32h0l1.49,6.16Z" transform="translate(-102.64 -2.55)"/><line class="cls-107" x1="1635.89" y1="154.8" x2="1650.69" y2="136.62"/><path class="cls-16" d="M1799.73,160.32c-.74,2.61-4.07,2.13-4.07,2.13s-19.33.34-19.69,0-.1-1.33,0-1.71a.27.27,0,0,1,0-.13h5.52s2.61-1.26-1.66-7c-3.59-4.79,10-5,14.37-5,.86,0,1.36,0,1.36,0S1800.45,157.71,1799.73,160.32Z" transform="translate(-102.64 -2.55)"/><path class="cls-16" d="M1797.43,158.49c-.72,2.61-4.06,2.12-4.06,2.12s-12.25.22-17.43.13a.27.27,0,0,1,0-.13h5.52s2.61-1.26-1.66-7c-3.59-4.79,10-5,14.37-5C1795.59,151.45,1798,156.61,1797.43,158.49Z" transform="translate(-102.64 -2.55)"/><path class="cls-108" d="M1798.22,158.87c-.72,2.61-4.85,1.74-4.85,1.74s-12.25.22-17.43.13a.27.27,0,0,1,0-.13h5.52s2.61-1.26-1.66-7c-3.59-4.79,10-5,14.37-5C1795.59,151.45,1798.75,157,1798.22,158.87Z" transform="translate(-102.64 -2.55)"/><path class="cls-16" d="M1765.2,122.9h41.3a3.76,3.76,0,0,1,3.88,3.61v23.34a3.76,3.76,0,0,1-3.88,3.61h-41.3a3.76,3.76,0,0,1-3.88-3.61V126.51A3.76,3.76,0,0,1,1765.2,122.9Z" transform="translate(-102.64 -2.55)"/><path class="cls-109" d="M1765.2,122.9h41.3a3.76,3.76,0,0,1,3.88,3.61v23.34a3.76,3.76,0,0,1-3.88,3.61h-41.3a3.76,3.76,0,0,1-3.88-3.61V126.51A3.76,3.76,0,0,1,1765.2,122.9Z" transform="translate(-102.64 -2.55)"/><path class="cls-16" d="M1764.16,122.9h41.3a3.76,3.76,0,0,1,3.88,3.61v23.34a3.76,3.76,0,0,1-3.88,3.61h-41.3a3.76,3.76,0,0,1-3.88-3.61V126.51A3.76,3.76,0,0,1,1764.16,122.9Z" transform="translate(-102.64 -2.55)"/><path class="cls-110" d="M1764.16,122.9h41.3a3.76,3.76,0,0,1,3.88,3.61v23.34a3.76,3.76,0,0,1-3.88,3.61h-41.3a3.76,3.76,0,0,1-3.88-3.61V126.51A3.76,3.76,0,0,1,1764.16,122.9Z" transform="translate(-102.64 -2.55)"/><path class="cls-16" d="M1809.31,146.82l0,3a3.76,3.76,0,0,1-3.89,3.61h-41.29a3.76,3.76,0,0,1-3.89-3.61h0l0-3Z" transform="translate(-102.64 -2.55)"/><rect class="cls-111" x="1673.33" y="158.2" width="19.26" height="1.7"/><path class="cls-112" d="M1798.22,158.87l.19,3a4.41,4.41,0,0,1-3.18.53v-1.7S1798,161.48,1798.22,158.87Z" transform="translate(-102.64 -2.55)"/><path class="cls-113" d="M1781.74,130.25a7.18,7.18,0,1,0,7.78,7.1h0A7.47,7.47,0,0,0,1781.74,130.25Zm.13,13.1a5.84,5.84,0,1,1,6.22-5.88h0A6.05,6.05,0,0,1,1781.87,143.35Z" transform="translate(-102.64 -2.55)"/><polygon class="cls-15" points="1679.77 131.62 1679.84 138.16 1681.71 136.63 1680.44 136.64 1680.38 131.65 1679.77 131.62"/><polygon class="cls-15" points="1679.23 138.17 1679.17 131.62 1677.3 133.16 1678.57 133.15 1678.62 138.14 1679.23 138.17"/><path class="cls-14" d="M1813.47,370.85q0,1.41,0,2.79a162.76,162.76,0,0,1-2.08,20.48c-2,13.44-4.32,27.47-11.36,37.83-8.48,12.46-22.31,17.34-35.6,18.67s-26.83-.27-40,2.09c-13.36,2.4-26.15,8.85-39.69,9a45.5,45.5,0,0,1-19.68-4.28A42.14,42.14,0,0,1,1648.33,444c-7-9.65-9.61-22.11-11.16-34.12a29.41,29.41,0,0,0-.66-3.49h0c-.08-.37-.17-.72-.28-1.09-1.58-5.53-4.35-10.24-6.16-15.51-.32-.94-.62-1.89-.87-2.88a28.38,28.38,0,0,1-.87-7.35c.12-6.81,1.81-13.38,3.56-19.85.78-2.88,1.58-5.76,2.47-8.61,2.15-6.87,4.83-13.46,9-18.92,8.3-10.94,21.27-15.67,33.81-18.31s25.6-3.72,37.31-9.4c12.12-5.88,22.59-16.56,35.69-18.82,9.57-1.65,19.49,1.52,28.14,6.77,19.12,11.56,31.15,41.52,34.35,66.91A106.06,106.06,0,0,1,1813.47,370.85Z" transform="translate(-102.64 -2.55)"/><ellipse class="cls-114" cx="1686.93" cy="412.91" rx="24.77" ry="5.59" transform="translate(-123.53 94.81) rotate(-3.29)"/><ellipse class="cls-115" cx="1758.68" cy="407.2" rx="30.77" ry="7.16" transform="translate(-123.08 98.88) rotate(-3.28)"/><path class="cls-116" d="M1677.49,391.47a32.36,32.36,0,0,1-4.4-.24,3.82,3.82,0,0,0-1.12,0,4.35,4.35,0,0,0-1.29.61,11.64,11.64,0,0,1-8,1.49,1.88,1.88,0,0,1-1.4-.77,2.41,2.41,0,0,1-.28-.91,17.48,17.48,0,0,1-.26-3.06,5,5,0,0,1,.23-1.68,2.85,2.85,0,0,1,1.07-1.29c1.66-1.2,3.77-1,5.74-1.05,2.32,0,4.71-.41,7,.21a7,7,0,0,1,4.22,3.17C1680.17,389.88,1679.5,391.45,1677.49,391.47Z" transform="translate(-102.64 -2.55)"/><path class="cls-117" d="M1677.49,391.47a32.36,32.36,0,0,1-4.4-.24,3.82,3.82,0,0,0-1.12,0,4.35,4.35,0,0,0-1.29.61,11.64,11.64,0,0,1-8,1.49,1.88,1.88,0,0,1-1.4-.77,2.41,2.41,0,0,1-.28-.91,17.48,17.48,0,0,1-.26-3.06,5,5,0,0,1,.23-1.68,2.85,2.85,0,0,1,1.07-1.29c1.66-1.2,3.77-1,5.74-1.05,2.32,0,4.71-.41,7,.21a7,7,0,0,1,4.22,3.17C1680.17,389.88,1679.5,391.45,1677.49,391.47Z" transform="translate(-102.64 -2.55)"/><polygon class="cls-16" points="1627.37 394.15 1639.64 403.22 1678.13 401.34 1666.77 392.91 1627.37 394.15"/><polygon class="cls-15" points="1631.76 394.27 1641.21 401.25 1670.81 399.81 1662.08 393.32 1631.76 394.27"/><path class="cls-16" d="M1722.83,365.78s9.12-6,11.77-15L1745,354s-9.83,17.83-14,18.58Z" transform="translate(-102.64 -2.55)"/><path class="cls-16" d="M1733.24,375.34c.55-.46,8.93-4.31,12-12.51l9,4.91s-7.66,14.08-15.29,14.95Z" transform="translate(-102.64 -2.55)"/><polygon class="cls-16" points="1662.16 384.78 1669.11 393.01 1645.72 397.58 1642.31 391.44 1662.16 384.78"/><path class="cls-118" d="M1748.08,393l15.07-4.37a3,3,0,0,0,2.24.66l2.94,3.54s-.73,1.32-.22,2.08l-16.76,3.8a4.92,4.92,0,0,0-2.49-.76l-2.2-3.3S1748.44,394.34,1748.08,393Z" transform="translate(-102.64 -2.55)"/><path class="cls-16" d="M1709.84,379.58l-.81-2.85c-.5-1.65-1.49-.13-2.76.69l-35.75,23.24a2.94,2.94,0,0,0-1.07,3.17l.64,2.47a2.86,2.86,0,0,0,1,1.54l6.54,5.27a2.07,2.07,0,0,0,2.89-.19l28.74-30.39A3.07,3.07,0,0,0,1709.84,379.58Z" transform="translate(-102.64 -2.55)"/><path class="cls-119" d="M1709.84,379.58l-.81-2.85c-.5-1.65-1.49-.13-2.76.69l-35.75,23.24a2.94,2.94,0,0,0-1.07,3.17l.64,2.47a2.86,2.86,0,0,0,1,1.54l6.54,5.27a2.07,2.07,0,0,0,2.89-.19l28.74-30.39A3.07,3.07,0,0,0,1709.84,379.58Z" transform="translate(-102.64 -2.55)"/><path class="cls-16" d="M1670.06,400.47l25.72-28.11a1.1,1.1,0,0,1,1.13-.32l11.24,3.57a1.56,1.56,0,0,1,.53,2.48l-29.25,30.4a1.08,1.08,0,0,1-1.47.12l-7.71-5.87a1.62,1.62,0,0,1-.39-2A1.35,1.35,0,0,1,1670.06,400.47Z" transform="translate(-102.64 -2.55)"/><path class="cls-120" d="M1670.06,400.47l25.72-28.11a1.1,1.1,0,0,1,1.13-.32l11.24,3.57a1.56,1.56,0,0,1,.53,2.48l-29.25,30.4a1.08,1.08,0,0,1-1.47.12l-7.71-5.87a1.62,1.62,0,0,1-.39-2A1.35,1.35,0,0,1,1670.06,400.47Z" transform="translate(-102.64 -2.55)"/><polygon class="cls-15" points="1604.31 375.98 1603.6 376.71 1578.24 403.03 1569.77 397.2 1569.25 396.84 1591.84 372.04 1604.31 375.98"/><polygon class="cls-121" points="1603.6 376.71 1578.24 403.03 1569.77 397.2 1591.83 372.99 1603.6 376.71"/><polygon class="cls-16" points="1585.09 395.42 1576.01 390.57 1578.52 387.64 1587.6 392.48 1585.09 395.42"/><polygon class="cls-122" points="1585.09 395.42 1576.01 390.57 1578.52 387.64 1587.6 392.48 1585.09 395.42"/><path class="cls-16" d="M1704.36,370.58l-1-.43c.25-.78.53-1.55.85-2.29l.94.56A22.3,22.3,0,0,0,1704.36,370.58Z" transform="translate(-102.64 -2.55)"/><path class="cls-16" d="M1707,364.8l-.86-.71a26.21,26.21,0,0,1,2.32-3.41l.76.85A25.72,25.72,0,0,0,1707,364.8Zm4.89-6-.62-1a15.51,15.51,0,0,1,3.29-2.15l.4,1.15a14.84,14.84,0,0,0-3.07,2Zm10-3.22a13.62,13.62,0,0,0-3.55.13l-.18-1.21a14.57,14.57,0,0,1,3.79-.14Z" transform="translate(-102.64 -2.55)"/><path class="cls-16" d="M1727.39,357c-.65-.27-1.31-.52-2-.72l.25-1.19c.68.21,1.36.47,2,.76Z" transform="translate(-102.64 -2.55)"/><polygon class="cls-16" points="1627.91 398.03 1627.37 394.15 1639.64 403.22 1678.13 401.34 1677.53 403.82 1638.72 406.32 1627.91 398.03"/><polygon class="cls-123" points="1627.91 398.03 1627.37 394.15 1639.64 403.22 1678.13 401.34 1677.53 403.82 1638.72 406.32 1627.91 398.03"/><path class="cls-116" d="M1797.18,367.84q.08,2.31.09,4.62c0,.89,0,1.76,0,2.64,0,.65,0,1.41-.51,1.75l-.2.11a2.38,2.38,0,0,1-.7.07l-3.26-.07a13.45,13.45,0,0,0-3.17.19c-2.08.43-3.92,1.81-6,2.22a12.93,12.93,0,0,1-2.78.13l-8.54-.17A5.19,5.19,0,0,1,1770,379a2.44,2.44,0,0,1-1.44-1.81c-.09-.6.07-1.21,0-1.82a.17.17,0,0,0,0-.07c-.25-1.62-2.14-2.83-1.69-4.37a3.72,3.72,0,0,0,.33-1.06,1.7,1.7,0,0,0-.33-.82,4.77,4.77,0,0,1-.93-3,10.1,10.1,0,0,0,.44-2.2c-.08-.87-.76-1.53-.89-2.38a2.37,2.37,0,0,1,1-2.23,4.83,4.83,0,0,1,2.25-.58l4.07-.38a2.56,2.56,0,0,0,1.87-.74,2.94,2.94,0,0,0,.16-2.72c-.32-.88-.85-1.66-1.16-2.56a5.49,5.49,0,0,1,.45-4.41,1.47,1.47,0,0,1,.49-.53c.72-.35,1.4.63,1.76,1.47a29.2,29.2,0,0,0,5.38,8.17,18.56,18.56,0,0,0,9.68,5.33c1,.2,2.52-.05,3.72.08a2.62,2.62,0,0,1,1,.27C1797.58,363.35,1797.13,366.43,1797.18,367.84Z" transform="translate(-102.64 -2.55)"/><path class="cls-116" d="M1813.47,370.85c0,.33,0,.64,0,1,0,.61,0,1.23,0,1.83a4.54,4.54,0,0,1-.72,1.63,4.39,4.39,0,0,1-3.5,1.38c-4,.29-8,.4-12.07.3a4.1,4.1,0,0,1-.61,0,3.06,3.06,0,0,1-1.58-.52c-1-.77-1.38-2.34-1.64-3.76a25.78,25.78,0,0,1-.68-8.32,3.72,3.72,0,0,1,.19-.83,1.88,1.88,0,0,1,.39-.69,1.82,1.82,0,0,1,1.15-.39l.78-.05c2.93-.2,5.89,0,8.83-.27a20.21,20.21,0,0,0,4.86-1c.78-.25,2.67-1.68,3.75-1.85A106.44,106.44,0,0,1,1813.47,370.85Z" transform="translate(-102.64 -2.55)"/><path class="cls-124" d="M1813.47,371.81c0,.61,0,1.23,0,1.83a4.54,4.54,0,0,1-.72,1.63,4.39,4.39,0,0,1-3.5,1.38c-4,.29-8,.4-12.07.3a4.1,4.1,0,0,1-.61,0,2.09,2.09,0,0,1-.7.07l-3.26-.06a13.56,13.56,0,0,0-3.18.18c-2.07.44-3.91,1.82-6,2.22a13.61,13.61,0,0,1-2.78.14l-8.54-.17A5.37,5.37,0,0,1,1770,379a2.42,2.42,0,0,1-1.44-1.81c-.09-.6.06-1.21,0-1.82a.17.17,0,0,0,0-.07c1.87,1.71,4.45,1.57,6.8,1.35a47.84,47.84,0,0,0,12-2.18,4.75,4.75,0,0,1,.31-4.33c.34-.52.79-.93,1.17-1.41.79-1.06,1.19-2.42,1.91-3.57a3.35,3.35,0,0,1,2.12-1.61,1.72,1.72,0,0,1,1,.16c1.29.63,1.54,2.63,1.57,4.26s.2,3.59,1.45,4.34a1.9,1.9,0,0,0,.42.18,4.41,4.41,0,0,0,1.4.13q5.64-.17,11.28-.68A19.72,19.72,0,0,1,1813.47,371.81Z" transform="translate(-102.64 -2.55)"/><path class="cls-116" d="M1664.62,378.72a15.18,15.18,0,0,1,6.74,0,14.68,14.68,0,0,1,4.75,2.29,30.35,30.35,0,0,1,9.7,11.51c.35.71.64,1.72.1,2.21s-1.13.07-1.64-.29c-2.22-1.59-9.81-9.63-14.69-6.59-.06,1.29,1.51,3.75,1.75,5a2.63,2.63,0,0,1-1.37,2.73,5.51,5.51,0,0,1-2.9.35c-2.81-.19-5.57.34-8.39.43-6.57.2-11-5.14-10.81-8.07C1648.05,385.88,1652.93,381.13,1664.62,378.72Z" transform="translate(-102.64 -2.55)"/><polygon class="cls-16" points="1638.03 386.98 1655.65 378.94 1662.02 387.2 1641.85 394.23 1638.03 386.98"/><path class="cls-16" d="M1653.51,392.6a11.81,11.81,0,0,1-1.25,4.18,4.54,4.54,0,0,0-2.55.27,16.61,16.61,0,0,0-3.53,2.1,81.1,81.1,0,0,1-8.32,5.3c-.53.3-1.09.59-1.65.84a70.73,70.73,0,0,0-3.72-9.5c-.89-2-1.71-4-2.43-6-.32-.94-.62-1.89-.87-2.88,4.6-2.57,12.39-1.32,16.35-2.54a27.14,27.14,0,0,0,3.28-1.33,22.43,22.43,0,0,1,3.51-1.38C1653.13,385.21,1653.92,389.1,1653.51,392.6Z" transform="translate(-102.64 -2.55)"/><path class="cls-125" d="M1653.51,392.6a11.81,11.81,0,0,1-1.25,4.18c-2.18-.44-4.22,1-6.07,2.37a81.1,81.1,0,0,1-8.32,5.3c-.53.3-1.09.59-1.65.84a70.73,70.73,0,0,0-3.72-9.5,12.67,12.67,0,0,0,5.78.6,52.2,52.2,0,0,0,8.17-2C1648.79,393.66,1651.15,393.13,1653.51,392.6Z" transform="translate(-102.64 -2.55)"/><path class="cls-126" d="M1736.21,352.34l5.12,1.68s-.55,1.89.32,2.7c0,0-5.09,10.26-9.75,12.94,0,0-.75-.86-2.92-.47l-3.62-2.86s1.24-.8.88-1.95c0,0,6.62-4.52,8.16-10.13A1.6,1.6,0,0,0,1736.21,352.34Z" transform="translate(-102.64 -2.55)"/><path class="cls-127" d="M1746.71,365.22l4.37,2.15s-.66,1.61,0,2.42c0,0-5.47,8.38-9.85,10.13,0,0-.59-.85-2.54-.79l-2.94-3s1.16-.55.94-1.63c0,0,6.3-3.1,8.19-7.86A1.38,1.38,0,0,0,1746.71,365.22Z" transform="translate(-102.64 -2.55)"/><path class="cls-128" d="M1743.88,389.16l12.38-5.46a2.2,2.2,0,0,0,1.93.41l2.76,3.21s-.5,1.4,0,2.07l-13.83,5.08a3.57,3.57,0,0,0-2.16-.48l-2.11-3S1744.29,390.42,1743.88,389.16Z" transform="translate(-102.64 -2.55)"/><path class="cls-129" d="M1653.51,392.6a11.81,11.81,0,0,1-1.25,4.18,4.54,4.54,0,0,0-2.55.27l-.89-14a22.43,22.43,0,0,1,3.51-1.38C1653.13,385.21,1653.92,389.1,1653.51,392.6Z" transform="translate(-102.64 -2.55)"/><path class="cls-16" d="M1791.39,361.55l2.71.07a1.41,1.41,0,0,1,1.24,1.49l0,13.2a1.31,1.31,0,0,1-1.23,1.42l-2.71-.07a1.41,1.41,0,0,1-1.24-1.49l0-13.2A1.31,1.31,0,0,1,1791.39,361.55Z" transform="translate(-102.64 -2.55)"/><path class="cls-130" d="M1791.39,361.55l2.71.07a1.41,1.41,0,0,1,1.24,1.49l0,13.2a1.31,1.31,0,0,1-1.23,1.42l-2.71-.07a1.41,1.41,0,0,1-1.24-1.49l0-13.2A1.31,1.31,0,0,1,1791.39,361.55Z" transform="translate(-102.64 -2.55)"/><ellipse class="cls-16" cx="1792.55" cy="369.75" rx="4.27" ry="5.04" transform="translate(-125.92 137.61) rotate(-4.45)"/><ellipse class="cls-131" cx="1792.55" cy="369.75" rx="4.27" ry="5.04" transform="translate(-125.92 137.61) rotate(-4.45)"/><ellipse class="cls-16" cx="1792.53" cy="369.78" rx="3.66" ry="4.32" transform="translate(-125.92 137.61) rotate(-4.45)"/><ellipse class="cls-132" cx="1792.53" cy="369.78" rx="3.66" ry="4.32" transform="translate(-125.92 137.61) rotate(-4.45)"/><path class="cls-16" d="M1783.36,345.14l-.09-1.44a3.07,3.07,0,0,1-1.88-.52l.22-1a2.94,2.94,0,0,0,1.8.51,1.34,1.34,0,0,0,1.34-1.48c0-.81-.55-1.24-1.47-1.62-1.27-.5-2.06-1.11-2.14-2.35a2.17,2.17,0,0,1,1.68-2.4l-.1-1.44.76,0,.08,1.38a2.78,2.78,0,0,1,1.6.41l-.24,1a2.56,2.56,0,0,0-1.55-.4,1.17,1.17,0,0,0-1.2,1.3c0,.74.51,1.09,1.6,1.54a2.73,2.73,0,0,1,2,2.5,2.33,2.33,0,0,1-1.75,2.53l.1,1.48Z" transform="translate(-102.64 -2.55)"/><path class="cls-16" d="M1760.48,353.9l0-.78a1.62,1.62,0,0,1-1-.28l.12-.52a1.58,1.58,0,0,0,1,.28.73.73,0,0,0,.73-.79c0-.44-.3-.67-.8-.87-.68-.27-1.1-.6-1.15-1.26a1.18,1.18,0,0,1,.9-1.29l-.05-.78.4,0,0,.75a1.48,1.48,0,0,1,.86.22l-.13.51a1.3,1.3,0,0,0-.83-.21.64.64,0,0,0-.65.7c0,.39.28.58.86.82a1.46,1.46,0,0,1,1.08,1.34,1.26,1.26,0,0,1-.94,1.36l0,.78Z" transform="translate(-102.64 -2.55)"/><path class="cls-16" d="M1785.18,391.15l0-.78a1.69,1.69,0,0,1-1-.28l.12-.52a1.6,1.6,0,0,0,1,.27.72.72,0,0,0,.72-.79c0-.44-.3-.67-.79-.87-.68-.27-1.11-.6-1.15-1.26a1.17,1.17,0,0,1,.9-1.29l-.05-.78.4,0,0,.75a1.57,1.57,0,0,1,.86.21l-.13.52a1.41,1.41,0,0,0-.84-.21.62.62,0,0,0-.64.69c0,.39.27.59.86.83a1.46,1.46,0,0,1,1.08,1.34,1.26,1.26,0,0,1-.94,1.36l0,.78Z" transform="translate(-102.64 -2.55)"/><g class="cls-133"><path class="cls-16" d="M1556.79,165.89,1535,187c-1.24,1.21-2.89.63-3.68-1.29h0a5.6,5.6,0,0,1,.84-5.69L1554,158.92c1.25-1.22,2.89-.64,3.68,1.29h0A5.59,5.59,0,0,1,1556.79,165.89Z" transform="translate(-102.64 -2.55)"/><path class="cls-16" d="M1608.21,137.81l-30.45,5.74c-1.75.33-2.77-1-2.27-3.05h0a5.91,5.91,0,0,1,4-4.24l30.45-5.74c1.75-.33,2.77,1,2.28,3h0A5.94,5.94,0,0,1,1608.21,137.81Z" transform="translate(-102.64 -2.55)"/><path class="cls-16" d="M1669.09,132.66l-30.74-4.09c-1.77-.23-2.26-1.84-1.11-3.59h0a6.17,6.17,0,0,1,5.28-2.74l30.75,4.09c1.76.23,2.26,1.84,1.1,3.59h0A6.12,6.12,0,0,1,1669.09,132.66Z" transform="translate(-102.64 -2.55)"/><path class="cls-16" d="M1836.46,226.24l-22.13-20.77c-1.27-1.19-.66-2.76,1.36-3.51h0c2-.75,4.68-.39,6,.8l22.14,20.77c1.27,1.19.66,2.76-1.36,3.51h0C1840.4,227.79,1837.73,227.43,1836.46,226.24Z" transform="translate(-102.64 -2.55)"/><path class="cls-16" d="M1842.87,268.79l-3.28-29.46c-.19-1.69,1.33-2.53,3.38-1.89h0c2.06.65,3.88,2.54,4.07,4.23l3.28,29.46c.19,1.69-1.33,2.53-3.38,1.89h0C1844.88,272.37,1843.06,270.48,1842.87,268.79Z" transform="translate(-102.64 -2.55)"/><path class="cls-16" d="M1811.89,308.07l21.29-21.56c1.22-1.23,2.88-.69,3.71,1.22h0a5.58,5.58,0,0,1-.72,5.7L1814.88,315c-1.22,1.23-2.88.69-3.71-1.22h0A5.6,5.6,0,0,1,1811.89,308.07Z" transform="translate(-102.64 -2.55)"/><path class="cls-16" d="M1591,333.16l30.45,5.75c1.75.33,2.14,2,.89,3.64h0a6.18,6.18,0,0,1-5.44,2.45l-30.45-5.74c-1.75-.33-2.15-2-.89-3.65h0A6.19,6.19,0,0,1,1591,333.16Z" transform="translate(-102.64 -2.55)"/><path class="cls-16" d="M1546.46,310l24.72,17.91c1.42,1,1,2.66-.87,3.65h0c-1.91,1-4.6,1-6-.07l-24.72-17.91c-1.42-1-1-2.66.88-3.65h0A6.34,6.34,0,0,1,1546.46,310Z" transform="translate(-102.64 -2.55)"/></g></g></svg>